/* XPM */
static char *_b308d89946249ecf2439b1c34b55999u0lWN9ml6w5nF6Ng[] = {
/* columns rows colors chars-per-pixel */
"114 64 256 2 ",
"   c #030201",
".  c #0C0001",
"X  c #070707",
"o  c #140101",
"O  c #1B0000",
"+  c #180807",
"@  c #1A0A1A",
"#  c #0D0E13",
"$  c #240001",
"%  c #2A0304",
"&  c #370302",
"*  c #27071A",
"=  c #350919",
"-  c #321514",
";  c #0C0A27",
":  c #181429",
">  c #181835",
",  c #110E2A",
"<  c #290B26",
"1  c #350B26",
"2  c #27142A",
"3  c #381429",
"4  c #261B36",
"5  c #371836",
"6  c #370E34",
"7  c #26233A",
"8  c #352933",
"9  c #1B252B",
"0  c #480303",
"q  c #580106",
"w  c #4E0E16",
"e  c #670206",
"r  c #780407",
"t  c #690516",
"y  c #770419",
"u  c #711613",
"i  c #471629",
"p  c #471737",
"a  c #54152F",
"s  c #770825",
"d  c #671628",
"f  c #73122C",
"g  c #502932",
"h  c #6C2D30",
"j  c #632C17",
"k  c #764739",
"l  c #49413E",
"z  c #0B1050",
"x  c #2F1B4A",
"c  c #14244B",
"v  c #29284A",
"b  c #2A2B55",
"n  c #362C56",
"m  c #2B3358",
"M  c #373658",
"N  c #352E48",
"B  c #060D6D",
"V  c #393A66",
"C  c #2F3168",
"Z  c #0E2C72",
"A  c #4C1E43",
"S  c #67184B",
"D  c #462747",
"F  c #582748",
"G  c #463959",
"H  c #513151",
"J  c #663858",
"K  c #6E2F4C",
"L  c #453B65",
"P  c #573665",
"I  c #4B376F",
"U  c #753865",
"Y  c #3B4559",
"T  c #3B456F",
"R  c #1A4E78",
"E  c #48465B",
"W  c #534E52",
"Q  c #714C52",
"!  c #494769",
"~  c #544969",
"^  c #57566A",
"/  c #494975",
"(  c #585778",
")  c #504F71",
"_  c #6C536D",
"`  c #586375",
"'  c #67667A",
"]  c #736D71",
"[  c #746752",
"{  c #2A4939",
"}  c #880404",
"|  c #970304",
" . c #921014",
".. c #A70407",
"X. c #B60309",
"o. c #B81519",
"O. c #AD1114",
"+. c #8A2B1B",
"@. c #B0231A",
"#. c #8F112C",
"$. c #B01729",
"%. c #8E3232",
"&. c #B2312F",
"*. c #CC0B15",
"=. c #D11B26",
"-. c #EF152B",
";. c #CF2F32",
":. c #E5111B",
">. c #914C3B",
",. c #B44735",
"<. c #C84A3B",
"1. c #EF663B",
"2. c #8D394D",
"3. c #B03846",
"4. c #94315F",
"5. c #D53949",
"6. c #D03B4D",
"7. c #ED334C",
"8. c #8F4F51",
"9. c #B64955",
"0. c #B25051",
"q. c #936B55",
"w. c #B36A58",
"e. c #8E516D",
"r. c #AC5867",
"t. c #B25668",
"y. c #936D73",
"u. c #B16E70",
"i. c #CF5050",
"p. c #E85156",
"a. c #D16A54",
"s. c #FA775A",
"d. c #F07056",
"f. c #CE5764",
"g. c #F05567",
"h. c #C76867",
"j. c #D56A66",
"k. c #DB7977",
"l. c #CE756E",
"z. c #E96669",
"x. c #F96769",
"c. c #E7786A",
"v. c #FB7968",
"b. c #F96A75",
"n. c #E87975",
"m. c #FE757B",
"M. c #FE7B7C",
"N. c #F87775",
"B. c #E76C78",
"V. c #938A73",
"C. c #B38E74",
"Z. c #A68C63",
"A. c #DA8778",
"S. c #D28C73",
"D. c #E78678",
"F. c #F8847A",
"G. c #FA886D",
"H. c #F38A5F",
"J. c #090F8A",
"K. c #092F8E",
"L. c #1E349A",
"P. c #104DAC",
"I. c #265CA5",
"U. c #575986",
"Y. c #4D5187",
"T. c #67588B",
"R. c #586889",
"E. c #666787",
"W. c #687589",
"Q. c #777989",
"!. c #706F92",
"~. c #6678B1",
"^. c #0E51CB",
"/. c #1C5CD9",
"(. c #5D65BE",
"). c #93728C",
"_. c #AC758A",
"`. c #986DA4",
"'. c #CE7985",
"]. c #FE7D83",
"[. c #FB7986",
"{. c #E97985",
"}. c #778693",
"|. c #7490A8",
" X c #528DAA",
".X c #6CA1DC",
"XX c #878996",
"oX c #8C8D91",
"OX c #AD8D8F",
"+X c #B9AB8F",
"@X c #8E95A8",
"#X c #AF93A8",
"$X c #95A6B0",
"%X c #AEAEB0",
"&X c #D79886",
"*X c #CF8F8D",
"=X c #E78786",
"-X c #FF8383",
";X c #FB8788",
":X c #FA8994",
">X c #F1948F",
",X c #D3AB92",
"<X c #FBA898",
"1X c #EEAE96",
"2X c #CE98A6",
"3X c #D7B8A7",
"4X c #CEAFAF",
"5X c #FDB8A7",
"6X c #F1B5AF",
"7X c #F694A6",
"8X c #B2C9B9",
"9X c #A7C4AC",
"0X c #D9C8B9",
"qX c #D2CEB2",
"wX c #FAC8A9",
"eX c #EBD6A9",
"rX c #F9D7AC",
"tX c #FEC9B7",
"yX c #E9DAB7",
"uX c #FFD4B4",
"iX c #FEDCB4",
"pX c #FED4BB",
"aX c #FEDCBB",
"sX c #F4DAB6",
"dX c #E6C7AF",
"fX c #FCE2B4",
"gX c #FEE3BC",
"hX c #F5E4B6",
"jX c #EDE6B6",
"kX c #DFC79C",
"lX c #AEB8CA",
"zX c #93A9D4",
"xX c #CBBAC7",
"cX c #FFA7CF",
"vX c #B7D5C8",
"bX c #B9DAD8",
"nX c #B0CDCB",
"mX c #B7E3DB",
"MX c #B5E7EC",
"NX c #98D0E8",
"BX c #C7D4CA",
"VX c #DAD6C9",
"CX c #C6D7D6",
"ZX c #D6DBD7",
"AX c #CCCACB",
"SX c #FDDAC5",
"DX c #F1D2CE",
"FX c #D5E3D7",
"GX c #FBE7C6",
"HX c #FCE8D6",
"JX c #FEF6D8",
"KX c #F1EDCB",
"LX c #D1E7E5",
"PX c #FDFAE7",
"IX c #F9F1EB",
"UX c #DEDAE3",
/* pixels */
"CXnXlX@XW.^ Y M N N E ^ ] ).%XxXAXUXUXIXLXFXVX0X6X1X*Xn.a.a.i.a.p.a.c.S.&X,X3XqXqXvXvXvXvXvXnXvX8XBX8XBXnXvX{ X # # ; ; Y.(.zX(.(.zX.XNX~.A t %.A.[ zXI.^./././.P.K.I.I. XlX).*Xd.s.s.1.H.H.t.0.%.DXN.@.s.v.s.s.d.s.G.j.l.u.q.Q v v ",
"CXlX$X`.R.Y m v 7 7 N H Q y.#XlXAXZXUXUXFXFXVX0X3X&XS.j.a.<.<.<.1.a.j.H.&X1X,XqXqX8XvXvXmXnXmXnXnXvXBXvX8XCXY X # # ; T.(.Y.L.J.J.P.P.I.zX`.w %.u.Q R.I.P.P.^./.P.B B K.R |.#Xh.G.s.H.s.a.&.3.IXx. .O.p.s.H.v.s.v.s.c.l.u.y.J 5 v b ",
"CXnX$XQ.^ Y c > : > 7 N W _ _.%XAXAXUXFXUXKXVX0X,X&Xl.0.<.,.&.<.<.i.a.S.S.,XqXqXvXvXvXvXvXvXnXnXNX9XnXBXqXAX[ @ X ; b ~.Y.B B B J.^./.P./.lX_.& i !.(.L.c c K././.^.J.Z z (.xX_.G.s.1.o.d.O.| g.;.} <.G.v.d.d.G.v.c.h.t.8.g 8 4 v b ",
"CXlX$XQ.^ Y 7 > , : 2 7 H ] ).#XxXVXZXZXFXVX0X0X3XS.l.i.,.,.@.@.,.<.a.S.&X,X3X3XqXqXBXnXvXnXvXnXmXNXnXCX4XxX] * # # !.Y.B J.B L.J.P./.^.K.I.xXF 6 `.B ; ; Z I./.^.^.^.P.P.I.%X2X,.1.@.@.5X5.| $.@.p.G.s.G.F.c.j.j.w.8.K F 5 x M b c ",
"xXlX$XQ.^ M 7 > : : 4 5 H _ ).#XxXAXCXFXZXVXVX3X,X*Xh.0.,.&.&.,.,.,.a.S.&X,XqXqXqXBXvXBXCXnXbXnXNXNXNXvX8XAX] * @ , `.z z J.J.J.J.P.P.Z P.K..X).< !.B L.I.L.P././.NX.XP.I.R $XQ %.<XO.@.@.o.X.p.s.v.s.c.c.c.S.w.r.8.g D G M m m b b ",
"CXlX$XQ.^ M v 9 > 2 4 N H [ ).+XqXAXZXFXVXVXVXdX,X&Xh.a.<.&.@.&.,.,.a.S.&X,X3XqXBXBXAXbXCXCXAXbXNXmXmX%XAXDXOX- o N T.z B z J.J.J.L.K.B P.P.(.~.x `.x J.P.P..XMXMXMXNXNX.X{ lXH 9.DX,.| | ;.x.v.v.G.c.F.a.8.u.8.J F F G ! m m b b b ",
"CXlX%XQ.` Y v 7 4 2 4 8 H [ ).#X%XAXVXKXKXVX0X6X1X=Xj.0.<.&.@.@.<.<.a.S.&X,X3XqXAXCXbXCXCXbXbXbX9XMXmXnXAX0Xy.- o G ( z B B J.J.J.J.B Z P.P..X$X6 U C B P..XNXNXNXMXNXMXNX@XxXa u $.| <.H.s.G.s.v.H.h.w.w.8.Q F D G / / V m b Z b b ",
"UXbXlX}.' E N 7 4 4 7 g H _ _.#X4XxXVXZXVXDXVX6X2X=Xj.i.<.&.&.;.<.<.j.D.,X3X0XBXCXCXbXbXbXbXbXmXmXmX9XvXDXu.h & % H ( ; B B B J.J.J.B P.I.I.NX@X< ).Y.B R NXMXNX.X XR. XNXZX_ d ,.&.a.v.d.G.v.v.c.0.w.q.Q Q ~ ^ ( ) / V V T C m b b ",
"ZXBX%X@XW.^ N 7 4 4 4 D H _ y.OX4X4XVXVXDX0X3X3X&X*Xj.i.i.&.&.;.<.a.S.S.,XdX0XBXFXmXmXmXLXMXmXmXMXnX4XDX8.3.l.d % 8 @XT Z B B B B B J.L..XMXvX] a S `.I  X.XNXI.I.P./.R R.$Xe.k.F.s.d.s.v.v.N.i.h.8.w i ] ] ( ` U.U.U.Y.! V V m b b ",
"UXCXAX@XQ.^ Y N 5 4 x g H Q y._.#X4X3X0X0X6X6X,X=Xk.h.i.9.&.,.,.1.a.H.D.6X0XVXBXLXmXmXmXMXmXbXvX9XLXZX2X%.B.N.y q % oX}.zXR.L.Z Z R L.zXNXzXVXk #.cX`.`.W. Xz K.^.P.I.I.@X#Xu.c.d.s.s.s.d.a.f.t.h w O + _ ' W.~.!.!.!.U.) L M m b b ",
"LXCXAX$XXX^ G 8 4 5 4 5 D J e.).OX2X2X4X4X3X2X*X*Xh.i.0.&.3.9.i.a.a.,XkXdX0XVXFXLXmXLXMXmXbXbXbXMX9XVXSX#. ...[.0.u Q ).zXNX.XNX.XNX}.nXlXXX#X0 y 9.4.S #X`.C B Z L.C !.#X_.D.G.d.s.H.a.w.w.%.& $ - o @ W Q.|.!.|.!.R.U.~ ~ G N n b ",
"FXZX8X$XoX^ Y 7 4 4 6 5 g F _ e.u.OX*X2X2X*X*X*Xl.h.0.9.9.9.0.i.a.S.1X1XdXVXZXFXLXmXmXLXLXLXUXAXLXvX2Xu.e #.O.p.$.%.2X_.oX|.|.nX|.NX$X}.lX#Xk q  . .4.S S U #X`.T.`.`.#X*Xw.N.s.s.1.a.w.q.% o + % i o   # Y }.$X|.!.!.T.^ ~ E M m b ",
"ZXCX8X$X}.^ N 8 4 2 2 3 p g J e.r.u.OX*X*X*X_.l.u.t.9.9.9.9.9.h.S.S.1X3XyXVXZXFXLXLXCXCXUXAXZXDXy.K w 0 u e r #. .#.f.2.e.oX@XW.|.zX$X`.`.e.0 +.r r r #.s y q d &.0.a.S.H.a.H.s.p.i.0.& + X     % % X . X 9 ^ |.@X@X`.).T.L G n n b ",
"ZXCX4X@XQ.^ E 8 2 2 6 6 3 p F K e.r._.'._._.l.u.t.t.9.9.9.9.t.l.S.S.,XdX0XVXZXFXCXCXUXIXIXxXe.i a d d d f 0 e e e r s s 0 Q ] #X#XOX`._ S a t r r } #. . . .&.a.a.d.H.H.H.H.1.;.i.,.Q o + X   . % - + .   X # X ) ` R.E.( ~ M n b b ",
"FX8X%X@X] W N 4 > < < < 3 p F K 4.r.t.u.u.u.u.t.r.9.9.t.t.f.l.l.,X,X3XqXVXZXZXUXLXIXUX#XK w w d s s t t t 0 0 & t 0 t q f t t t d g a a a #.#.r t y s $.;.v.c.<.<.i.1.a.<.<.<.,.,.l.*Xo X X X o - - O o + { ] ' E ! ^ ( ( ! L V b b ",
"BX8X%XoX_ E N 4 : < < < 1 i g K 4.r.t._.h.u.r.r.t.t.0.t.u.h.'.*X,X3XqXqXVXVXUXUXAX_.F w w f f f t s t q t t.u.u.8.h e f t #.y s t y t t s s e  .+.3.{.{.-Xd.<.i.i.s.a.j.a.,.w.a.=X_._.+ X X # 1 8.0 $ + X X 8 ] XXXX!.T.( / M b b n ",
"vX8XoXV.^ G 8 2 < , < 2 < 6 A S 4.2.r.r.r._.t.t.f.t.t.h.'.'.=X,X4XqXVX0XVXHX4Xe.t s s #.y f y u u u  .%.i.B.r.u.dXy.d t s  .y r e r }  .@.,.a.a.H.s.H.v.d.a.p.p.f.n.u.w.>.w.S.l.u.u.y.. X + + y.w.q.0 o + W { 9 G W ' T.( L m m v v ",
"vX8X9XQ.[ W g 2 : @ @ < < 3 p S S 2.4.r.r.r.r.t.t.t.t.'.'.*X2X4X0X4X0XDX4Xe.d d f e t #. .r u %.j.c.D.D.{.<XDXDXIXh 0 s t e #.&.i.i.x.v.G.H.H.d.s.s.H.d.a.a.d.N.B.8.w 8.8.& y.6XHX4XQ o . + O Q K l.% + # 9 ] Q.W.' _ ~ G G M m v v ",
"vX8X$XoX] W 8 5 < , , @ 1 6 i a f K 2.8.e.e.4.t.t.t.t.'.*X2X2X0X4XHX4Xe.a d f q s #.#.e y %.k.B.z.z.D.>X3XDXIXPX8.w t $.#.$.{.{.{.F.m.m.v.v.v.s.x.v.s.z.A.c.a.0.e '.tXJXhXC.HXIX2XOX2X# . . + 8.8.*Xw o X X # { ( _ ~ ~ P ! m m b v ",
"vX8X%XoX] W D 5 < < < < < 6 i p a S S K 2.4.e.4.4.t.'.'.'.4X6X6X2XK 0 d f t t #.s q t %.B.{.j.f.D.:X6XtXPXPX4Xg & s #.y y  .s #.0.f.b.[.m.m.N.N.v.v.x.c.S.,.h u t.S.,XS.,X3X,Xw.*XDX%X. 9 . . q.8.l.& . X X X 9 X , 2 N L G m v v v ",
"mXnX9XoX).^ H p 6 2 < < < < 1 i i a p h K K 2.2.8.r._._.2X6X2Xy.w f f s t s s s t %.t.7X=X0.9.<X5XtXHXIX%X- O & t s y #.#.#.y #.e  .#.$.&.i.f.j.B.j.w.h % o j &X>X<XwX1XS.,XS.rXtXIX] W 9 . % Q 2.u.O O X   9 7 7 v D G L M m v v v ",
"mXnX9X$X)._ W D p 6 6 6 6 1 1 1 i i a a a K K K 4.r.r._.2X2X_ * f a t s #.#.s t 3.7X>Xl.w.D.;X5XDXIXKX[ X X w f #.s t f y y t q t d s y t f 8.r.0.e 0 h j + O & h w.C.hXgXfXKXGXpX0XV.W   o + 8.Q Q O . X X # 9 M G ) ~ ~ Y M m b b ",
"mXnXlX$X).y.Q H A A 6 6 1 1 < = 1 = 1 i p a S h U 2.4._.#X#Xe.p i w w d s s t d 9.:X:Xh.h.A.;X5XHXFXW X X - d t s s f d w t f w w w w w w * - - O $ 8.6XqXC.u.C.a.Z.w.rXgXeXuXaXDX0Xy.X   # - OXh O - X X : ; 9 # , x n M M m v x b ",
"NXnX$X$X@XE._ P A A p 6 1 1 < = < = 1 = 1 i a F S K e._._.2X#X2X_.e.K i = w t t {.:X=X9.c.D.>XtXKX%XX X + - a f s f w & a a & w - % % O o . X   O O q.HXJXtX5XA.A.S.gXrXfXfXwXaXdXC.[ OX    4X4Xi O g 8 # X ^ Y ) ) ~ ! L M n m b x ",
"9XnX$X|.}.!._ P J F A A p 6 1 * * * * * 1 1 i a S K e.e._.#X#XxXxXcXAX4X4Xy.OX%.:XB.;X&.N.=X<XuXJX[ # 9 @ o % = = w % O - O $ $ o o % O O .   o o w k SXHXJXSX<X1X1XwXfXfXeXrXfXC.Q PX]   [ DXk - o 5 ^ 8 X ; ! ) ! ) ! L V m v v x ",
"zX$X$X|.Q.Q._ _ J J S A p p 1 < 1 * * * * 1 1 i a K e.e.).#X%XxXlXAXCXvXBXZX2X*X:X;Xg.i.N.n.<XGXHXOX8XCX8 o $ $ o o + - X . O $ % & % & $ % i g u.8.8.SXJXaXuXGXwXwXfXeXhXfXkXaXC.dXPX8 # W 8 - g X o _ E ; 4 M ! ~ ! ! V M n m c v ",
"$X}.|.|.!.W.' _ _ U J S F p 1 1 * @ @ * * * 1 w a K Q e.y.OX#X%XlX%XvX8X8XFX] C.{.;X;.g.;Xk.5XHX4XFXPXV.% d g O +   + 9 X X O & w r.3.f.f.k.{.:Xh.9.8.wXJXJXhXjXgXGXeXeXjXGXGXq.Q PXHX+ X . o g 5 8 X G ( 4 x L ! ! ! I ! M M m b b ",
"}. X}.}.Q.E.!.E.T._ U U S a a 1 * * @ $ * = = i F K e.e._.OXOX#X%X%X8X9X8X%Xq.S.[.x.$.m.;XD.wXgX+XVXVXg d *X6Xi .     # #   o $ & 2.9.f.B.[.{.g.z.p.0.5XJXKXqXSXaXpXHXyXhXjXZ.,X,XPXUXX . o - i # ^ 4 2 _ M 4 ! / / / ! L V C n b b ",
"W.W.W.W.W. X!.!.).).4.4.U S a p * * + * * * i i h K 8.y._.OX+X%X$X%X%X%XqXV.u.>X[.6.i.].F.D.aXyXqXFXC.q.7X7XSX6X+ #     { X o o + & t q #.f.b.-X;.$.i.SXHXC.V.SXSXGXjXKXqX+XjX+XIXHXDX+ . o % 8 < E E 4 P ~ x ~ ) / / / V V M M n n ",
"` ` R.W.W.}.|.|.`.)._.).U J a a = * * * * = i a K K e.y.u.OXOXOX+X%X%X+X+XQ u.D.g.=.b.M.k.&XGXqX,XOXq.*X*X5XIXOX] oXW   8 X + o % i u.f.F.N.z.i.x.5.$.%.8.C.3XIXDXDXqX+XjXJX3X3XDXIXy.# + o O Q ~ > ^ ~ G ~ L / ( / / / ! L M V n n ",
"` R.R. X X|.@X@X#X`._._.e.U S a 1 * * * * = 1 a h K 8.u.u.OXC.OXoXOXOXOXu.t.:X-X6.i.[.c.=XwXGX,Xq.l.l.7XrXPX9X[ JXPXVX3 w = $ + o $ h w.h.k.>X;X-X-Xj.%.8.3XDX3X6X+XqXJXKX+XeXHXIXDXW 8 W g = K ] v E ( L P ~ I ) / / / T / L V V V ",
") ` W.}.|.|.$XzXzX#X#X`.).4.S d 1 1 * * = = = i h K 8.y.y.OX_.OXOXV.y.C.2.h.:Xg.p.].-Xc.<XpXwXQ S.h.5XpXJX+XV.FXKXJXPXQ w h O . . O w r.%.0.j.j.F.j.=X1X*X,X2X4X4XVXVXqXyXKXKXDXHXh 4Xy.Q [ % g ^ ' ~ H ( ~ I ) / / ~ / ! ! ! ! ! ! ",
"Y ) '  X|.|.$XlXlX#X#X_.`.e.U S p 1 1 * * * = i g g Q 8.y.y.u.y.y.y.y.8.0.;Xb.;.x.x.c.5XtXw.w.l.A.=XgXJXqX[ jXjXjXjXHX3X% h -     X o d t.f.B.j.f.k.u.C.S.+X+X+X+XjXfXeXGXGXVXPX[ r.*X2X[ Q w w _ _ H G W ) M M L / ( _ _ ~ ! ) ^ ^ ",
"Y ^ ` }.|.|.$X$X$X$X#X#X`.4.4.S p 3 1 * = = - 1 i g h Q 8.q.y.r.e.y.e.8.u.{.i.i.N.N.F.<XtXl.j.:X<XSXjXkXZ.qXjXgXKXyXyXIXg w w O X   . % h 9.{.{.:X=Xl.&XsXJXKXKXKXqX,XJX5XsXJXV.j >X>X5XC.[ j % 2.h 4.cXe.H ^ ) ( / P P ~ ^ ` ^ ^ ' ",
"m Y ` W.}.oX@X$X#X$X_.`._.4.U U A p 1 1 * = * 1 i i g Q Q Q 8._ e._ e.g u.k.&.i.M.N.F.D.<X=XD.<XpXrXeXq.eXjXGXsXPX,XC.PXV.w g % + . . o $ K l.[.n.h.8.w.,XC.C.V.[ { Z.kXtXJXeXo q.SX&XpXSXC.h %.#.y 2.[.t.S W M M ! ( _ _ ( ( ( ( ' ",
"v Y Y ` ] }.|.@X#X`.`.`.`.4.4.S F A p 6 1 * < 6 3 g g F J U J U Q J Q i 8.'.6.6.].m.c.i.a.D.F.<XpXfXkX,XJXqXGXGXSXQ OXHX3XO 2.& % .   X . % j u.>Xh.>.q 0 & 0 j k kXhXJXJX3Xj w.,XSX*X,XPXS.8.>X| o.$.$.#.3.K ^ ' ^ ~ ) T.E.E.E.E.E.",
"9 v Y ! ' ' ).).).).).).).4.U U F A A A x 6 1 < 5 p D H P J J J W H H g d {.f.3.m.m.N.i.i.D.-X>XwXGXuXJXkXKXJXPXu.t.2XSXg % d d o     X   + O j w.k.>X>X=X1X<X6XSXGXyXGXuXj +.n.&XSX3X,XHXw.w.tX .X.X.X.b.6X2.J ^ ` ` R.E.T.E.!.E.T.",
"> 7 8 Y ~ _ ' y.).).).e.e.U U S J H A A A x 6 6 4 x x H P P P P P D D H i _.{.&.g.].M.a.,.N.M.n.5XC.HXiXyXKXJX3Xr.>XDXQ $ O d a . # X . + - O $ w 8.=X=X=X7XDXDXSXSXHXqX& %.;X;X5XGX+XeXGX%.1XSXa.} | =.:X6X#.e.D Y ` }.W.!.E.T.E.' ",
"9 > 7 N E W _ _ e._ U U U U U U P S n H n x x x x x G G U I I P P x D 5 1 e.[.6.i.[.F.z.i.z.].N.<Xq.kXGXKXPXVXu.*X6Xy.% o $ & a + + O $ & j K & % 0 >.l.7XSXSXDXDXSX+X$ j A.m.b.SXgXZ.hX5X+.wXiXwX,.| O.o.$.2.SX8X}.Y Y ` Q.!.( ' U.",
", 9 9 8 g H J J U U J S J J P S P I S I A x x x x n C I I I T.I P n n , 6 S {.'.6.-Xm.z.&.p.-XM.D.w.5XKXSXJXPXOX2X2X% o o % + h 3 O % 0 & w l.h & % & h u.tXHXSX6Xq.O j l.k.[.<XaXgXqXgXl.0.gXrXrXH.u } =.$.f.PXPXPXFX|.W H ^ ).' ' ",
", : 9 2 g D F K K K F F F F P P P P P S C x x x n C I I Y.T.T.T.I V b v 2 = *X{.6.b.[.g.<.p.m.M.c.&XsXSXPXIXHXOX6Xg + 8 X + + % h 0 & q 0 q 9.f.&.u $ o + g l g + % j w.=XA.;XtXSXdXkXGX>.H.fXfXfXrX,.+...*.f.SXDXHXPXPXIX%X[ 8 W E ",
"# : 2 2 8 p g F S F F F F H H H P P P n n C I B B C C I Y.T.T.T.T.I M v 7 - '.{.f.[.[.x.i.z.m.m.F.<XsXsXHXIXDX[ ] # W oXl + + $ d q q q t e 6.f.f.9.h & + . o + $ 0 0.n.D.=X5XtXSX1XrXwX+.wXhXrXhXS.u O.g.DXx.f.SXSXDXJXJXPXPXKXy.] ",
"# @ : 2 3 8 p p p p p A A D H H P P P I I n x C b C V T Y.T.T.T.T./ ! m 8 2 e.>XB.b.].m.p.z.].N.F.5XSXKXHXPXIXi . 8 oXoXy.o + % t t q j 8.+.i.f.i.g.p.3.j & O O & %.j.[.D.1XpXaXrX1XwX&X+.hXgXrXgXw.r =.7.DXg.=.SXpXsXsXhXhXKXJXPXIX",
": @ @ 2 1 3 3 5 3 3 6 p A D D I A I D C C C C B C Z Y.Y.T.T.(.T.!.Y./ Y N 8 K 7X{.z.m.m.p.z.].b.G.wXGXKXHXPXPX8   ^ oX] V.O + % 0 u h r.A.>.0.j.6.5.g.g.f.&.d 0 j w.;X=X=X5XSXfXiX&XrXw.w.GXrXfXGX,.@.=.*.7.=.;.tXpXaXfXsXjXjXyXVXGX",
"@ @ : * < - 3 2 1 3 3 5 x D G H G D n n n C C C C T T Y.T.T.T.!.`.U.U.! Y l g '.:Xg.N.m.z.z.-XN.F.wXaXSXKXPXIX8 9 ^ oX%X[ o % & & u %.=X>X8.>.;Xg.7.7.7.g.g.6.2.0.F.F.A.<XuXsXgXwX1XrX+.kXfXwXgXSX;X@.X.-.*.| i.uXuXuXrXhXhXfXfXhXGX",
"@ @ - * * 2 < - * 2 4 5 D x D D x x x x x C C C R R Y.Y.U.T.!.!.!.T.R.R.` W g 0.:XB.m.].z.z.-XM.G.wXaXyXVXPXIX^ 8 y.oXOXg O & q e y +.j.>Xl.,.>Xb.g.7.7.7.7.6.3.z.-XD.A.aXgXjXGX1XwX<Xj fXfXiXiXtX<X+.} *.=.i.<XfXrXrXrXfXrXhXeXgXgX",
"@ * @ 2 - 2 * 2 < 2 2 5 5 x x 8 x x x c c m Z Y.Y.Y.Y.U.U.E.' E.!.!.T.R.` ] Q 8.:X[.].].B.b.M.F.G.5XSXiXFXPXIXoXg oXOX_ % & 0  .$.| $.&.F.F.i.F.m.m.g.g.p.6.6.5.].m.=XwXgXGXsXeX,XaXw.q.fXjXfXrXtXa.@.O.@.,.D.GXfXfXfXfXfXfXeXkXkXeX",
"@ : @ @ @ @ @ @ @ < 2 4 4 8 x v 4 4 > c v Z C T T Y.R.U.U.U.R.R.T.T.R.!.}.oX[ 8.k.[.;XM.N.n.N.=XH.<XSXaXKXPXIX%X[ 8.u.y.% & t  .X...p. .B.c.i.-XM.].m.g.p.6.5.6.;Xx.1XgXiXhXhX,XwXfXj D.gXfXgXrXwXr  .;.SXG.c.fXrXfXfXfXfXrXwXkXwXeX",
"9 : : : : @ : : @ : 2 7 7 4 4 4 : , > > c b T / Y.Y.R.Y.Y.Y.Y.Y.( ( W.E.!.@XOX8.0.;XM.m.M.[.;X{.D.<XaXaXtXIXHXGXh u.7X{.% % t e | } ;X&.&.n.n.F.F.D.-XN.x.p.i.;.F.<XaXSXeXJXkX,XgX1Xk uXwXuXgXgXD.} ..;.5Xm.*.].;X<X5X5X5X<X<X1XC.C.",
"9 > : , , : : @ : 2 : 4 4 > > : , : , > > b T / U.U.R.Y.Y.Y.Y.T T ^ ' !.).#XOXy.8.N.N.v.m.].>X=XN.>XaXaXtXHXJXHXq.*X[.{.%.& & e } ..g.p. .z.;XN.-X-X-X;XM.z.p.i.<XrX5XwXfXhXC.kXGX>.>.hXGXgXfX<Xa.O.;.o.=.*.*.[.m.N.k.l.w.w.w.u.S.,X",
"7 9 : : : > : > 9 2 : : > > > ; ; ; ; > c m Y / U.U.Y.Y.Y.V T T ) ) U.!.!.#XOXOX>.j.N.M.M.m.;X=XD.>XuXhXpXGXKXJXu.=Xf.6.0.q 0 +.+. .&.-X .;.>Xb.N.m.m.M.;XM.n.j.iXfXaXGXfXeX3XgXtXj ,XjXuXwXuX5X;.X.X.=.*.;.i.z.k.S.C.C.C.3XyXGXfXgX",
"c 7 c 7 7 7 9 9 7 > > > > > , ; ; ; ; > 7 m T / U.Y.Y.Y.T T V V T T ( W.!.`.$XOXQ w.N.F.m.m.].=XD.A.eXGXaXGXKXPXC.8.6.7.&.0 y #. .r O.M.p.O.x.].m.m.m.M.M.-XF.D.rXrXgXaXeXeXhXGXA.+.GXhXGXwXd.O.=.;.*...| +.i.S.C.S.qXhXJXKXGXsXfXrX",
"Y m c m 7 7 7 9 7 9 > > , , , ; ; ; ; > v n L Y.U.Y.Y./ V V V V T ) ) R.!.Q.XX#Xk w.c.F.m.m.m.-XD.S.dXgXiXpXKXJX,X2.g.g.&.0  .t r } | ;.b.o.;.].].].].].-XF.n.A.1XGXhXeXKXKXhXGX%.w.JXeX+XZ.@.o.p.wXG.+.l.S.eXrXJXJXGXaXsXaXSXGXfXfX",
"Y Y Y Y Y Y N 8 v 7 > > > , z ; ; ; , > v M ~ ( U.U./ V V C V V T T / ( E.' ] oXQ >.j.M.m.m.M.;XG.S.wXgXpXsXKXPXDX2.f.7.9.t q e r O.O...7.;.O.g.x.x.x.m.].;X=X=XwXgXGXsXeX,X3X&X+.S.S.C.C.q.| *.=.F.i.&.GXJXJXjXeXyXhXGXGXpXuXtXrXfX",
"` ^ ` ` ` ` Y Y N v 7 > > > ; ; ; , > > v V I U.U.Y./ L n n n V C / T ! _ ^ ^ y.8.%.f.N.m.M.M.F.F.D.5XiXpXtXKXJXGX%.3.5.f.%.0 q ..*.=...o.p.O.@.i.i.6.f.b.;X].F.5XwXgXkXC.+X1X%.q.SXGXSXgXS.| :.:.-.X.,.fXwXeXhXjXjXyXsXyXGXgXGXfXfX",
"R.}.}.}.}.' ` ^ Y Y v c c > z > , , > x v G ~ T.( ( I M n b b M C T L G ~ W g Q 8.%.i.x.m.].N.F.G.D.5XuXSXSXKXJXDX8.{.g.B.=Xh q O...=.=.o.p.<. .p.;.&.&.p.M.[.N.5XGXwXC.kXJXSX+.>XHXc.+.>.>.| *.-.:.=.v.uXgXfXjXjXjXhXgXgXaXhXeXfXfX",
"}.}.@X@X@XXX}.' ^ E M v v c > > > > v v M ! ( ( ( ~ L M n n N n T C G H A a 8.'.7X3.6.g.[.b.>XN.G.<X<XtXSXSXGXJXC.w.[.[.[.7X2.q ..X.*.*.O.| | O.;.;Xi.&.i.i.b.m.F.GXZ.kXGXgXa.,.HXk.O.*.7XHXO...} &.c.5XaXiXhXhXhXfXpXuXpXuXaXiXfXrX",
"}.@X$X$X@X@X}.Q.` ^ Y M m v c c > 7 v v L ~ ( ( ( ! L G M G M G Y ! H F K r.'.{.[.6.6.6.b.[.F.F.D.=XSXGXpXSXJXIXq.t.f.p.f.{.h.r } | O...O.=.7.x.| p.:Xx.p.;.p.N.F.<XfXhXeXGX+.k.SX&.*.-.7.g.o.i.c.G.5XiXfXhXfXhXiXaXuXpXuXpXpXiXfXrX",
"|.@X$X$X$X$X@X}.W.' ^ T Y m v v v v N E ~ ( U.T.) / ! M G G E E Y ~ F S t.{.7X{.[.g.6.6.g.-XN.D.S.S.GXGXJXPXPX,X%.f.6.5.6.z.:Xi.O.O.O.} | ..;.;.;.X.X.X.7.x.v.i.<X5XgXhXrXC.+.i.;XO.*.-.:.-.*.p.iXgXgXfXhXhXhXgXiXiXaXiXuXiXiXiXfXfX",
"}.oX@X@X$X@XoX}.}.E.^ ^ / Y Y Y M M ! ) ( ( ( ( ) P G M E E ~ ~ ~ J K 9.{.:X[.[.[.6.g.7.5.m.c.D.&XGXJXPXJXPXJX8.i.i.7.b.b.x.;XM.-XN.p. .o.*.-.*.X.X.*.=.p.<.v.<.&.c.Z.JXl.e  .;X:X=.*.:.-.-.o.<XiXhXsXhXsXhXhXhXfXiXiXiXfXfXhXhXfXfX",
"}.}.oX$X$XoXoXoXQ.W.' ( ) ! T ! T ! ^ ( ( E.U.( ) ! L E ~ ~ ^ _ _ 2.4.h.[.].N.m.].&.[.g.p.z.N.D.tXPXJXJXPXPX,X3.g.7.b.[.[.m.b.-X-Xn.z.} | ..=.*.X.*.*.=.v.;.@.| *.<.a.S.+.&.@.x.g.*.X...*.*.<.fXiXsXsXfXfXfXiXeXrXhXhXhXhXhXhXiXfXfX",
"}.}.}.oXoXoXoX}.).Q.' ' ( ( ) ` U.` R.E.E.E.( ( ) ~ ! ~ ) _ ' ] e.8.9.z.[.b.F.F.n.&.[.[.x.z.;XD.6X6XqXBXPXJX%.9.7.g.[.m.m.;Xv.M.n.;XF.;.o.| O.X.X.X.=...;.*...*.:.p.wX .| | *.*.:.*.v.c.d.<XfXfXfXhXhXiXiXaXiXiXhXjXjXjXjXhXiXfXfXfX",
"` ] V.}.oX}.}.).}.] Q.!.W.E.R.W.W.W.!.W.!.E.' ) ) ~ ^ ^ ' ] ] E.e.9.i.z.v.F.G.F.i.0.:X[.[.B.F.D.h.*XJXKXPXy.#.{.7.[.].M.F.F.M.N.N.-X:Xb.i.&.o.o.....*.X.*.:.X.:.:.:.*.*.*.X.*.-.*.*.<XfXfXrXrXeXhXfXrXuXrXiXfXfXfXjXjXhXfXrXrXiXhXfX",
"] ] }.}.}.}.V.Q.oX}.Q.Q.Q.Q.!.!.!.!.!.!.!.E.U.( ^ ) ^ ` ' E.Q.y.r.9.i.x.N.v.H.D.>.{.[.[.].].N.F.h.6XHXFXPXg 3.6.-.[.M.-XF.D.F.v.].N.N.-X].].M.F.o.O.*.*.*.*.*.:.:.:.:.*.-.*.*.:.:.x.iXeXfXfXjXhXhXfXrXuXrXrXrXfXrXjXhXhXfXrXuXuXjXjX"
};
