/* XPM */
static char *_58371df32674a19a240913dcf959fb6bXZU87UqXpOxWUVK[] = {
/* columns rows colors chars-per-pixel */
"64 64 255 2 ",
"   c #0A0D17",
".  c #0E131B",
"X  c #0C1616",
"o  c #11151C",
"O  c #14191D",
"+  c #1A191D",
"@  c #181418",
"#  c #0F0F0E",
"$  c #261A1A",
"%  c #320D0E",
"&  c #142819",
"*  c #352619",
"=  c #0E1522",
"-  c #0D1A27",
";  c #121622",
":  c #141924",
">  c #1A1B24",
",  c #151C2A",
"<  c #191E2C",
"1  c #171526",
"2  c #191F32",
"3  c #170F26",
"4  c #261D25",
"5  c #301D21",
"6  c #1B222D",
"7  c #192327",
"8  c #1C2231",
"9  c #1E2539",
"0  c #1E312B",
"q  c #28262B",
"w  c #362929",
"e  c #242A36",
"r  c #372B32",
"t  c #2A3337",
"y  c #343939",
"u  c #343328",
"i  c #551A18",
"p  c #68181D",
"a  c #4B301C",
"s  c #7B1D26",
"d  c #671525",
"f  c #4A3528",
"g  c #563C28",
"h  c #473734",
"j  c #533D37",
"k  c #542B25",
"l  c #673728",
"z  c #722D2E",
"x  c #571D21",
"c  c #27512E",
"v  c #594539",
"b  c #54492E",
"n  c #6C552C",
"m  c #674936",
"M  c #695637",
"N  c #775A39",
"B  c #6C4C2F",
"V  c #776338",
"C  c #746730",
"Z  c #5A5E31",
"A  c #353A43",
"S  c #2A3143",
"D  c #364C47",
"F  c #386A58",
"G  c #3A6D62",
"H  c #454B4A",
"J  c #594942",
"K  c #555958",
"L  c #4C5050",
"P  c #674A44",
"I  c #685648",
"U  c #775747",
"Y  c #715451",
"T  c #4A774C",
"R  c #4E6D51",
"E  c #796548",
"W  c #7B6658",
"Q  c #72734C",
"!  c #525963",
"~  c #566E67",
"^  c #6C7767",
"/  c #6C7476",
"(  c #6E7070",
")  c #773F40",
"_  c #8E1D2C",
"`  c #9A2536",
"'  c #8E232D",
"]  c #A22536",
"[  c #A21A2E",
"{  c #815C3D",
"}  c #85693B",
"|  c #8C753D",
" . c #92793C",
".. c #8E6C32",
"X. c #9E2740",
"o. c #865E47",
"O. c #8A534B",
"+. c #876947",
"@. c #96654B",
"#. c #9B6A4E",
"$. c #966748",
"%. c #8B7645",
"&. c #947B44",
"*. c #977947",
"=. c #866656",
"-. c #996A54",
";. c #997756",
":. c #A57858",
">. c #A2704F",
",. c #997A65",
"<. c #997C72",
"1. c #8E7268",
"2. c #A47965",
"3. c #3E8A61",
"4. c #4F9157",
"5. c #708852",
"6. c #58A75D",
"7. c #56B15A",
"8. c #62B15A",
"9. c #498965",
"0. c #558A69",
"q. c #4B9569",
"w. c #559969",
"e. c #568B74",
"r. c #559A79",
"t. c #4C9373",
"y. c #649978",
"u. c #748B76",
"i. c #58A668",
"p. c #58A477",
"a. c #54AE6B",
"s. c #63A866",
"d. c #67B867",
"f. c #6BB574",
"g. c #72B078",
"h. c #6CC76B",
"j. c #6CC872",
"k. c #74C875",
"l. c #78D777",
"z. c #72C96D",
"x. c #7EE87B",
"c. c #4F8A3A",
"v. c #9B834B",
"b. c #978447",
"n. c #998555",
"m. c #8C844F",
"M. c #A3864C",
"N. c #AC9152",
"B. c #998468",
"V. c #9A8776",
"C. c #8F9271",
"Z. c #A7876A",
"A. c #B5896C",
"S. c #A98A75",
"D. c #AA957B",
"F. c #B89678",
"G. c #AF916E",
"H. c #B8A772",
"J. c #85B879",
"K. c #C59A7A",
"L. c #CAAD71",
"P. c #84D679",
"I. c #85E87B",
"U. c #A58B3E",
"Y. c #787D83",
"T. c #589B84",
"R. c #7D8584",
"E. c #6E9988",
"W. c #58A785",
"Q. c #5EAD90",
"!. c #66A687",
"~. c #76A38B",
"^. c #68BA87",
"/. c #75AC92",
"(. c #6CC38A",
"). c #77CD8B",
"_. c #7EE986",
"`. c #85898A",
"'. c #879788",
"]. c #949D97",
"[. c #8F938F",
"{. c #A89787",
"}. c #B89884",
"|. c #AB9993",
" X c #9AA599",
".X c #8BAA95",
"XX c #BBA38A",
"oX c #A5AA9D",
"OX c #B1A894",
"+X c #98B1A5",
"@X c #A4ACA4",
"#X c #ABB5AB",
"$X c #A9B5A7",
"%X c #B3BBAC",
"&X c #B3B7AA",
"*X c #ACBAB2",
"=X c #B4BCB3",
"-X c #B9BEB4",
";X c #B9B8B5",
":X c #A7AEB6",
">X c #C69C81",
",X c #C8A688",
"<X c #D5AB8A",
"1X c #D8B58B",
"2X c #C9AC95",
"3X c #CCB299",
"4X c #DAB797",
"5X c #CDAF89",
"6X c #E3BD9B",
"7X c #E4BB96",
"8X c #E0B98E",
"9X c #DBBDA3",
"0X c #C4B5AF",
"qX c #E6BEA4",
"wX c #89D589",
"eX c #87E685",
"rX c #88F48C",
"tX c #B6C2AE",
"yX c #BBC3B4",
"uX c #BAC6B7",
"iX c #B0C7B1",
"pX c #DEC29D",
"aX c #DCC581",
"sX c #E5C39C",
"dX c #EAC49D",
"fX c #E7C699",
"gX c #F2C79C",
"hX c #C3CCBC",
"jX c #C2C8B7",
"kX c #C8D2BD",
"lX c #DEC3A6",
"zX c #E5C4A2",
"xX c #EBC5A3",
"cX c #EBCAA4",
"vX c #EAC6A9",
"bX c #EDCAAA",
"nX c #E5C7A9",
"mX c #F2CCA7",
"MX c #F1D0AA",
"NX c #C8CBC4",
"BX c #D4CBC8",
"VX c #CBD4C3",
"CX c #CCD8C6",
"ZX c #D2DCCA",
"AX c #D3D9C6",
"SX c #D7D7D6",
"DX c #D5CDD5",
"FX c #E2DAD2",
"GX c #EAE8E8",
"HX c #EBEEF3",
"JX c #F3F3F4",
"KX c #F8F7F8",
"LX c #F1EEEF",
"PX c #DAE0D6",
"IX c #C4BFC3",
/* pixels */
"'.*X=X*X*X X X].:X$X#X#X=X;X#X;XR.S A A ! / R.].! 9 8 8 , 2 2 - 8 8 8 2 9 e t R.:XD 2 2 2 2 2 < e < L -XjXtXhXNXuXhXuXhXhXhXyXhX",
"/.+XuXuX:X X X X$X*X*X*X=X#X*X-X:XL 9 S 9 9 9 e S 8 8 8 8 8 8 8 , , 2 9 8 6 t Y.:XL 2 2 2 2 , , < 8 6 [.VXyXkXhXhXhXNXhXuXNXjXAX",
"Q.~.#X-X=X@X].@X+X$X*X$X@X=X=X@X:X Xt 8 9 9 9 2 - 2 2 8 2 , 8 2 8 8 - 2 2 2 S Y.~ t , < < , , < , , 6 H uXVXhXuXuXyX-XyXyXVXhXyX",
"Q.~.$X*XiX*X*X=X=X@X#X$X@X$X%X;XuX*X[.e 2 - 9 9 - 8 2 2 2 - 8 , 6 8 2 8 < , q S , ; < 2 3 2 < < , 6 6 y  XNXkXjXyX%X#X&XyXCXjX$X",
"!..X:X.X/.:XuX;X*X@X#X:X@X:X].`.R.`.[./ 8 e 2 , 8 8 , 2 8 - 8 6 : 2 < , < , < = : , 8 , , , , , , 6 8 t ].=XNXyX&X&X$X$X%XZXAX%X",
"/./.~.E.!./.#X*X#X:X X/ L D A 8 e e 8 S 9 , 8 > , 8 - 6 8 , , , < , , , , < 6 < 8 , , : , , , , , , 6 L oX&XuX-X@X&XoX&XtXZXZXyX",
"Q.T.T.Q./.~.*XiX@X/ A 2 , , 8 9 8 : 8 8 7 6 , , , - , 6 , , , - < , < < < - ; , , ; , , : : , , 7 e e *X#X X&XNX&X&X&X%XyXZXVXyX",
"T.T.Q.Q.~.].=X*X@XR.( ! D S 2 8 , 8 8 - 8 , < 2 6 - 8 , - 8 , 6 , ; < ; < , , , , , , : , , 6 : , 6 [.ZX-XoXjXuX;X&XyXjXjXkXNXCX",
"t.T.!.W.!././.+X$X#X[./ Y.`.! e < , 6 - 7 6 ; < , : : , , , : , , , , , - , , , , , , = : , : , H #XZXjXuXtX#XuXjX-XyXyXyX&XkXkX",
"W.T.W.W.Q.W..X=X+XR.( ~ ! H e 8 2 < , , 6 - 2 , , , , : , , , ; , , , , , , , 1 , , , , : , : > L R.=XSXuX X[.@X-XjXhXyX@X$XkXkX",
"t.W.T.W.Q.W.~.:XR.( ! A 7 : > 6 , < 1 , - , 2 - , , , , , : , , , , , - , , , , 1 , , 3 : : : : . ; y `.=X[.#XyX%X%X$X X XtXkXZX",
"T.T.T.!.r.E..X X/ D < : , 8 7 = , 1 , , , , , - , , , : , , , , - , 1 , ; , ; , , - - = - : : : q 7 ; > ~ @XoXAXZXhX&XoX XyXAXZX",
"t.r.W.W.T..XuXR.A 6 2 2 , 1 , , , , , , < , = < , , , : : , , , 1 , ; : : ; ; ; ; - : ; = : ; : - ; 1 8 > K =XjXVXVXVXiX&XuXkXZX",
"p.W.r.r.Q.+X~.y 7 : 2 , - < , - > , 6 - , 1 1 8 : : , : : : : : ; : , : ; : , ; ; ; = : : : : ; , = : < < + ~ jXuXVXhXVXkXhXkXPX",
"e.W.e.e.~ D 7 > 7 : , , : , 1 2 : , 7 = > 1 h r : : : : : : : : : : ; ; , : > : : - ; : = : ; - = O : : 1 < 1 ~ -XVXVXVXZXkXCXCX",
"/.~ D e q q 8 , , < , : : , = , : : - > ; 4 K j : : , : , : : : ; ; ; > ; ; ; ; ; : ; = = = = ; = O O . , ; > ; K @XCXuXZXZXZXiX",
"iX$X.X! 9 - , , O , O , - , , ; , ; - - = f -.J 1 6 > : > : = > - O 1 - - : + . = O = : = : : = O O O ; > o < 7 < q K &XkXZXZXyX",
"iXuXuX$X'./ D t e ; , > = = : , ; 1 , 7 7 m 2.1.7 = , O > : = > 3 + >   , : . , : ; : ; : o : ; . . : ; o > o ; q L  XyXAXAXCXjX",
"iXuXtXC. XVX&XoX/ 6 ; , , ; ; : 1 : 1 > r O.2.3Xr : 2 7 4 > ; : ; <   r 4 ; ; ; ; : : o o ; : ; : ; . ; ; 7 O K ].NX%XjXhXAXZXkX",
"$XiX$XoXtXiXuX@XA . ; ; . : < ; : : 4 O h :.>XqXP < , r r ; , ; > = . h J 1 < ; : o : o ; o o ; o ; . ; ; O o / hX&XhXkXkXAXAXkX",
"'.oX%XtXtXuX Xt O > 6 7 . : : . 1 : < 1 J 2.<XmXS.> - q Y > > > + = < 5 =.h 3 , o ; O o O ; o o o . ; ; o O o t $XtXjXtXkXAXkXZX",
"~.u.$XVXuXR.8 : ; :   ; : ; ; > - > 1 4 W 2.qXqX4Xy - 5 =.h o 1 o , . * =.=.5 ; o ; o ; o . o ; . ; ; o o > O X v kXtXtXAXAXkXAX",
"u.C.$X@XL 7 7 , : > , o ; ; O O 1 w > q -.F.vXzXxXW o 5 U W 5 1 O : ; $ =.2.P 1 O O O O o o O . . o . X o o . > & ( kXuXkXZXAXkX",
".Xu.K q > > < q > . > ; ; o O O ; h q r -.5XvXsXcX|.w $ Y 2.P 1 > o : + 2.K.=.r O ; o o o o o o O X O 1 . : o O > O C.kXuXAXAXZX",
"#X.Xu.[.[.'.[.L @ o , . + O o = $ P , f Z.1XnXxXvX6XI 1 J A.2.f O ; , . Y fX:.Y $ - 3 @ o @ X . X . o o o . o o : 7 q `.SXAXAXZX",
"*XiXiXtXiXuXu.; O O ; = + X ; : h Y 1 m A.6XzXzXxXmX{.q v F.,XY q 7 = < h 4XK.2.f - ; . X . O o o o . o o o O o . X @ & ^ kXZXZX",
"'..Xg.0.g.'.q > o o ; ; ; o ; o m <.< m F.xXzXbXzXdXxXI $ >X6XF.Y @ q 3 4 XXgX>XP @ ; @ o o X o O . O X . O O O y H L K C.kXAXPX",
"5.0.0.w.y.y X O o o o o o @ 1 @ =.}.4 U ,XbXnXxXbXxXmX2Xf Z.dXqXF.v @ 1 4 V.fX8X2.f o o X o . o O o . . . O o o [.CXjXVXZXAXZXAX",
"8.0.W.a.~ 8 O 1 X o o ; . o + 4 Z.>Xq o.4XqXnXcXnXbXdXbX<.=.cXzXsXF.v + > W lXxX>XY $ 4 + o ; o . o X o o o . o u.ZXkXuXkXZXZXkX",
"y.0.a.wXD O 7 . O O @ ; = o + w F.<Xr U 4XxXnXbXnXxXdXzXlXZ.sXzXsXqX3Xv @ v 4X>X,X2.q $ h   1 o X o   o . . o   L uXjXkXZXZXkXiX",
"9.0.z.k.t & & D 7 . o O = o @ j 4X7Xj o.>XxXvXzXnXzXMXzXbXpXpXcXcXsX6XlXI $ B.,X1X,Xj f P @ ; @   @ o o o @ o o u  XkXCXZXuXyXtX",
"0.w.k.s.7 0 6.k.6 . X O - O @ I 6X4X( S.:.K.bXxXxXzXnXbXfXcXnXlXqXbXfXK.1.J Z.bXsXqXW l 2.$ o # o . . .   @ o o @ u.kXCXCXuXtXjX",
"w.0.y.F & i.rXg.0 3 @ X + X @ =.sXqXS.4XsXK.F.qXxXxXsXcXsXbXsXbXsX4XA.+.Z.6X5X6XsXzXG.=.2X5 1 . @ o   @ O   @ @ 1 y -XZX=XtXkXAX",
"4.w.y.c T wXP.d.X O 1 = @ ; 1 Z.bXqX4X4XcXMXF.:.<XxXxXxXbXsXbXzXnXF.+.G.6XqXqXvXqXbX>X2.9XM # O .   3 . . X O O @ # ( %X@XkXZXAX",
"~ w.T F ^.k.wXd.& X X - : + q D.fXfXcXnX4XlXfXG.;.K.dXdXcXsXcXcXvX4X,X4XxX6XxX6XxXfX8X<XsX=.# o @ @ 1     o > `.R.~ I oX&XiXNX*X",
"T 4.4.w.).z.eXw.  + X   3 w v D.bXzXsXcXbXnXsXgXK.:.F.xXzXdXcXsX7XcXdXsXzXcXMXbXcXmXxX6XcXD.$ < . # # J I @ + oXhXhXyX@X=X%XiX*X",
"4.0.6.s.k.eXrXT ; 3 r =.@ r =.F.bXdXgXfXgXmXqXqXmXA.#.,XbX6XbXsXbXsXsXfXsX3XB.1.W W }.qXsXF.* L = * Z.qXqXj   '.hX%X%X@X%X$X$X.X",
"4.y.8.l.eXI.rXH # , y MXE @ D.K.dXzXnXD.E =.2XbX6X7X:.#.xXxXsXcXxXvXnXnX,.f f f v m v S.MX,XI Y   B.7XK.6XY # ^ uX$XoX#X.Xy.~.!.",
"6.s.k.eXP.I.P.0 # c 5.B.G.y D.gXlXlXW r L J * W qX4XZ.@.3XvXcXzXcXsXnXU j S.,XnXbXMXzX,X1X,X1.=.$ <X+.N 1XB.D y .XiX+X~.r./.p.w.",
"4.8.z.P.I.I.s.# c P.g.U U P V.cXdX>XN 2XnXzX,X=.;.4X,.o.4XbXsXfXsXcX4XK.dXcXcXfXxX4X2.D.4X5X2Xm I A.j W 5X{.*X/ ~ .Xy.e.e.^.(.^.",
"8.z.z.x.I.wXT T eXI.J.I I J <.sXsXsXcXbXqXxXsXcX7X>X-.o.dXdXdXxXnXvXzXbX,X3X,X}.F.D.}.6XdXsX3Xg Z.U N -.2XD..X+X.Xr.W.!.p.^.(.(.",
"z.z.z.l.I.eXh.I.rXI.wXm.U v M gX6XsXsXsXdXdXbXsXxX,X=.F.zX6XcXnXsXfXdXsX,XK.Z.,.1X4XbX6XdXMXG.W S.l #.>XOX`..X~.E.e.!.).(.).).(.",
"8.h.l.z.l.l.l.I.I.eXeXs.A.U Q 1XxXbXdXfXmXxX6XdXdX,X=.Z.bXfXsXnXcXdXfX7XcXbXbXzX}.}.9XfXfXfXn.2X<.B >.6X{.iX.X/.q.e.r.^.(.^.(.).",
"d.h.k.z.z.z.l.l.wXI.rXP.Z.-.B.K.vXzXsXsX6XxX6XgXxXvX<X;.<X4XzXsXxXsXxXbXMX4XXXD.DXBX2XbXsX6XS.Z.U { 5XH.C.+Xe.T.t.t.p.^.(.).^.W.",
"z.z.h.k.z.z.z.P.j.P._.l.Q 2X,.S.dX4XxX3X}.9XbXbXdX6XxX7X6XsXbXbXcXcXzX3XOX|.IXGXJXBX4XbX4XqXO.U } F.4X;.n.B.u.T t.q.W.p.W.Q.p.!.",
"h.d.h.d.z.h.8.h._.k.l.).0.D.,XE pX7XMX4X0XOX{.,X4XqXqXxXnXlX4X2XXXXX{.0XDXKXJXHXJXFX5X7XMXG.N G.<X6XZ.%.*.M.H.n.R ~ t.0.t.T.t.r.",
"h.d.h.8.7.d.h.h.z.h.z.(.y.R OXH.K.cX6X3XBXJXBXOX{.{.V.V.{.[.|.|.0XDXGXKXJXLXLXGXSX{.3XgXzXS.5XpXK.;.%.M.M.U.| m.XX5.R 0.t.3.e.~ ",
"d.i.8.d.d.h.h.j.z.).).k.r.0.Q K.D.zXfXpX{.DXKXKXKXPXGXGXGXLXKXHXKXKXJXHXSXNXIX0X[.,.mX6X4Xv j g %.&.n.v.&.n.n.C ..5Xu.F 3.G F G ",
"g.i.6.8.d.d.h.).k.f.).a.t.e.R Z =.5XfXzX{.V.].#XDXGXGXBXDXSXGXDXSXLXJXGXBXBXSXSX{.fX7XcXD.o @ $ b.v.v.v.v.v.n.*.V C L.N.R F F F ",
"d.f.f.s.s.d.d.d.a.i.p.f.r.T Q 1XE +.bX4XXXI K `.;XDXPXIX0X;X;XIXBXGXHXKXHXKXJX{.2XdX7XzXj * Z f &.v.v.v.v.*.} } n.N C H.H.R F F ",
"w.f.g.s.i.i.i.a.W.a.s.~.4.5.aXN.E g V.;.U B.<.0XKXLXKXKXHXJXLXLXKXLXJXHXKXBX{.3XdX7XvXZ.a * n.+.&.b.v.M.v.v.*.C N ;.C ..N.H.H D ",
"4.p.w.w.i.w.p.p.t.r.r.4.C L.n.+.b I g =.4XlXlXD.|.BXHXJXHXJXLXJXHXJXLXFX&XD.4XgXxX1X;.M m.n *.M.b.M.b.b.v.v.%.| N C | N  .N.H.R ",
"9.q.9.q.i.q.a.p.w.e.0.T aXM.V Y b E E m F.4XsXdX3X{.{.BXSXPXGXSXSXhX3XXX4XbXsXdX>X$.B +.b.M.*.*.v.&.M.M.&.&.*.+.{ n Q +.V  .N.L.",
"9.w.9.q.q.p.q.p.q.p.T G.B.I M V b M b n M Z.1XsX6XqX4X3X2X3X2X3X2X,X4XqX4X6X3X,.o.=.o.} v.&. .%.&.v. .*.v.| V %.n N N | n %.b.L.",
"q.9.9.9.q.a.t.p.w.4.Z Q C V V V V n B n } %.%.F.7XfXdX7XK.F.F.F.K.xX6XxX6XA.+.o.@.-.N B E *...+.v.v.*.b.&.} V V %.n V N *.n &.N.",
"q.9.9.9.t.t.q.9.~ =.F.*.;.M.%.E N M U V b.b.&.+.$.F.4X4X4X,X5X,X8XxX3XA.@.o.#.>.-.$.m * a b V $.| *.*.*.v.} n N } C +.n } %.%. .",
"3.9.3.q.w.9.R 0.Z H.L.>.v.b.b.b.| *. .v.m.;.V +.n.n B ,.F.<X7X<X>X;.o.o.$.#.$.#.@.-.l g b b b }  . .*.*.| %.} ..%.%.*.%.| *.*.%.",
"q.0.q.p.w.4.w.q.m.aXN.b.b.M.v.b.v.b.v.*.*.&.} n M g b O.+.{ U o.{ o.$.-.-.#.#.#.@.@.z f u b * * } $.*...v.| *.*. . . . . .| &.&.",
"w.4.i.i.p.p.a.3.H.L. .b.M.b.*.*. .*.n.&.M. .&.N a f l @.#.-.@.#.-.#.@.#.#.#.@.@.@.-.O.% * % i i g b n C | *.%.&.b. .| &.*.*.%.*.",
"4.q.7.a.w.6.a.5.aXb.b.b.v.b.M.b.b.*.M.*. . .;.b x k l @.$.#.#.#.@.#.#.#.@.#.#.#.#.K.S.x d d s X.k M b Q | *.&.%.| $.*.&.%.%.%.*.",
"4.7.a.7.a.6.c.N.L.b.%.&.v.v.b.b.v.*. .*.;.+.B p ] _ z $.@.$.@.@.#.$.@.>.#.$.$.;.<X8X>Xx d [ X._ _ z N +.| ....&.&.%.%.%.&.|  . .",
"q.6.7.7.a.7.c.L.N.V V *.:.*.&.&.%.| b.*.b i s ` X.s { @.#.#.@.@.#.@.@.@.$.$.A.1X<X4X>.p ` [ [ X.] _ l M +.} ;.} N B g B N { } %.",
"4.4.7.h.8.6.c.L.b.M V C %.} &. .*.+.M l p _ ` _ s { 2.:.@.#.@.>.@.#.#.@.:.K.8X1X4X-.d X.[ ' X.s z ) =.U N B z l s s _ s p i l l ",
"7.4.7.7.7.6.5.H.b ! ^ * K ^ I z z i P U ' [ [ _ @.<X7XK.>.@.@.$.@.@.>.K.<X8X1X1X2.z X._ z z ) S.|.|.<.U x _ ' _ ' ` ] ] ] ` ' s "
};
