/* XPM */
static char *_f989ba967774c5cd97b46e7c409cc6afaXUDqrbAXCLwJzG[] = {
/* columns rows colors chars-per-pixel */
"46 64 248 2 ",
"   c #020101",
".  c #0B0301",
"X  c #0B0905",
"o  c #04030A",
"O  c #0B0B0A",
"+  c #070808",
"@  c #140200",
"#  c #1A0200",
"$  c #150A02",
"%  c #120E0B",
"&  c #180B04",
"*  c #14120D",
"=  c #18160B",
"-  c #131313",
";  c #1A1612",
":  c #1C1A15",
">  c #1C1C1B",
",  c #161618",
"<  c #0F0D15",
"1  c #210100",
"2  c #270901",
"3  c #390802",
"4  c #241508",
"5  c #351804",
"6  c #211D1A",
"7  c #2A1E10",
"8  c #371B17",
"9  c #362509",
"0  c #27221B",
"q  c #372818",
"w  c #3F3414",
"e  c #1D1B23",
"r  c #282624",
"t  c #3B2A24",
"y  c #36312A",
"u  c #3C3A37",
"i  c #192517",
"p  c #451708",
"a  c #56110D",
"s  c #781B0C",
"d  c #791E14",
"f  c #65140F",
"g  c #422307",
"h  c #492816",
"j  c #5B221A",
"k  c #4B341A",
"l  c #573A1B",
"z  c #562F0E",
"x  c #76220D",
"c  c #62271A",
"v  c #7B2311",
"b  c #792919",
"n  c #7D321D",
"m  c #673E1E",
"M  c #473A2A",
"N  c #52382D",
"B  c #692B25",
"V  c #762B25",
"C  c #673724",
"Z  c #783427",
"A  c #703C37",
"S  c #5A401D",
"D  c #5A4527",
"F  c #4A453B",
"G  c #574839",
"H  c #534A30",
"J  c #6A4C36",
"K  c #6A5639",
"L  c #725335",
"P  c #785638",
"I  c #744A2E",
"U  c #7A613E",
"Y  c #574D46",
"T  c #484843",
"R  c #7A5B46",
"E  c #6B5547",
"W  c #7C6549",
"Q  c #776855",
"!  c #6A6554",
"~  c #7B736A",
"^  c #871A0E",
"/  c #831D13",
"(  c #8D1C14",
")  c #8D1E19",
"_  c #931D15",
"`  c #991E16",
"'  c #941E1B",
"]  c #9B1E19",
"[  c #90170C",
"{  c #842214",
"}  c #8D2315",
"|  c #86261A",
" . c #8D251A",
".. c #852C1B",
"X. c #8C2A1B",
"o. c #892A15",
"O. c #932216",
"+. c #94241A",
"@. c #9B231B",
"#. c #932A1D",
"$. c #9B291E",
"%. c #972516",
"&. c #8F321D",
"*. c #A1241E",
"=. c #A1281D",
"-. c #A31F23",
";. c #8D2B23",
":. c #882C25",
">. c #952522",
",. c #9C2423",
"<. c #942A21",
"1. c #9C2B22",
"2. c #91292A",
"3. c #8B3524",
"4. c #873826",
"5. c #943224",
"6. c #9B3224",
"7. c #96392B",
"8. c #853C34",
"9. c #99393A",
"0. c #A22421",
"q. c #A22B22",
"w. c #A72D27",
"e. c #A23228",
"r. c #8C4635",
"t. c #984935",
"y. c #8B4C33",
"u. c #A15039",
"i. c #825E45",
"p. c #975647",
"a. c #95544B",
"s. c #A45946",
"d. c #B65847",
"f. c #87654A",
"g. c #876E55",
"h. c #956956",
"j. c #8B775A",
"k. c #987759",
"l. c #8F6E4A",
"z. c #A9624A",
"x. c #A96C59",
"c. c #B46C55",
"v. c #AC795B",
"b. c #8A7965",
"n. c #967A66",
"m. c #8D7369",
"M. c #A57D64",
"N. c #B87B65",
"B. c #C37B63",
"V. c #C36A5A",
"C. c #888465",
"Z. c #9A8369",
"A. c #9B8B76",
"S. c #968D75",
"D. c #A7886B",
"F. c #B5896A",
"G. c #A58A77",
"H. c #B78D76",
"J. c #AC9479",
"K. c #BB9574",
"L. c #B59B7B",
"P. c #B89878",
"I. c #B2906B",
"U. c #B9A17E",
"Y. c #A5A17E",
"T. c #C6836A",
"R. c #C9866B",
"E. c #CB8A74",
"W. c #C8977A",
"Q. c #D5977D",
"!. c #D28A70",
"~. c #C4A37E",
"^. c #C8A27E",
"/. c #E1977C",
"(. c #9B9184",
"). c #938C82",
"_. c #AA9887",
"`. c #B99D85",
"'. c #BCA383",
"]. c #BCA889",
"[. c #B8AB97",
"{. c #ACA58D",
"}. c #BAB2A3",
"|. c #C99986",
" X c #D89D83",
".X c #C5978A",
"XX c #E39781",
"oX c #C4A483",
"OX c #CBA383",
"+X c #C4AB84",
"@X c #CBAB85",
"#X c #C3A58B",
"$X c #CAA48C",
"%X c #C5AB8B",
"&X c #CCAD8B",
"*X c #D3A484",
"=X c #DCA386",
"-X c #D4A48A",
";X c #D3AD8B",
":X c #DAAC8C",
">X c #D8A789",
",X c #C6B38B",
"<X c #CCB38C",
"1X c #C8B58B",
"2X c #D3B38D",
"3X c #D9B18E",
"4X c #D7B88B",
"5X c #C4AB93",
"6X c #CCAE92",
"7X c #CCAA95",
"8X c #D2AB92",
"9X c #DAAD92",
"0X c #D9A899",
"qX c #CDB393",
"wX c #CDBB93",
"eX c #CCB49C",
"rX c #C8B799",
"tX c #D4B592",
"yX c #DAB594",
"uX c #D4BA94",
"iX c #DABB95",
"pX c #D4B699",
"aX c #D5BC9A",
"sX c #DCBC9B",
"dX c #DDB69B",
"fX c #E5A88C",
"gX c #EBB396",
"hX c #E1BD9D",
"jX c #E3BC9C",
"kX c #E6B698",
"lX c #EFB097",
"zX c #C9B9A7",
"xX c #D8BCA3",
"cX c #E0BDA6",
"vX c #CDC099",
"bX c #D5C29C",
"nX c #DBC19D",
"mX c #D7C097",
"MX c #E1C19D",
"NX c #E4C497",
"BX c #DBC3A2",
"VX c #D7C3A9",
"CX c #D7C5B2",
"ZX c #CCC6AE",
"AX c #E3C3A2",
"SX c #E7C9A8",
"DX c #F2CBAF",
"FX c #EADAC9",
/* pixels */
"wXwXwXvXmXmXuX2XiXuXiXiXiXNXMXMXsXAXAXBXnXnXaXwXqXqXpXiXdXyXdXhXnXnXbXbXbXbXBXBXBXnXnXsXsXhX",
"wXuX4XmXiXiX4XqX4XiXtXiXiXjXMXiXsXAXAXAXsXaXaXtXuXuXpXsXjXjXjXcXnXnXBXnXnXbXbXvXbXbXbXsXhXAX",
"uXuXuX4XuX2X2X2XiXiX2XtXiXiXiXiXdXMXSXAXMXsXsXsXyXyXyXyXsXjXjXsXsXsXsXnXnXnXbXuXaXsXsXsXnXAX",
"tX4XuXuXtX2X4XuXyX2X2X4X4XiXiXiXsXhXAXAXhXsXhXhXyXyXpXyXdXjXsXsXhXhXhXhXhXsXnXaXnXsXBXsXsXsX",
"2XyXyX2X3X<XtXuXuXuX4X<XiXiXiXiXuXbXnXsXsXyXyXdXyXsXsXsXaXaXbXnXhXjXsXdXsXsXjXsXsXsXsXsXuXuX",
"3X3X3X3X2X2X2X4X2X<XtXuXiXiXmXmXaXaXaXuXtX2X;X8XpXdXsXaXuXuXvXBXsXdXyXtXyXjXjXhXyXsXhXsXpXuX",
"3X3X2X@X2X<X2XuX<X2X4XuXiXmXiXmXaXwXqXqXtXtXyXyXyXyXsXiXwXwXvXvXsXaXtXtXdXsXjXsXyXiXsXsXuXtX",
"3X@X@X2X2X4X<X<X<X1X<XuXmXmXsXiXuXqX<XtXdXkXkXkXkXjXdXsXnXBXvXvXaXuXqXtXiXsXMXcXpXsXAXsXaXqX",
"4X@X^.<XuX<X1X1X+XmXmX<XiXiXiX2XyXyXfXkX=X XQ. X XfXlXgXAXMXhXMXaXbXuXuXnXiX<XiXMXuXuXsXsXiX",
";X@X@X<X<X1XwX1XbX1X4XNXtX3XkXgX XR.z.t.4...b s | 4.t.c.!.fXgXkXiXuXnXbX+XnXSX,XnXiXiXsXnXsX",
"+X@X,X,X1XwXwX<XuX<X3XkX4XgXQ.z.3...s / ;.6.6.>.+.<. .s / 7.V.XXjXdXuXiXnXuXwXiXuXiXiXuXsXAX",
"~.@X4X+X1X<X4X<X~.mX>X:XlXN.n 4.+.,.1.1.1.@.] ' ] >.w.w.1.1.+. .c.>XjX:XdXnXtX<XuXbXaXuXiXAX",
"^.2X2X@X1X<X4X@X4XfXDXlXt.v 5.o.O.@.*.*.` ` @.*.*.@.] ] *.*.*.$.v t.!.gXkXiXNX2XmXmXmX4XuXhX",
"@X@X<X@X^.@X@X@X>XlX/.3.v #.6.%.0.*.*.@.@.@.@.%._ *.q.*.] ` *.q.#.s 4.!.gXgX4XmXmXwXwX4XtX4X",
"*X;X@X@X^.;X@X*XgXN.4.x 6.q.%.` +.+.O.>.$.$.+.} $.+._ _ q.w.0.` =.e.^ { B.lXkX;XuX<X1X<X2XtX",
";X@X2X2X<X;X:XfX/.u.v | $.@.] *.O.+.+.O.O.O.>.5.o.+.#.+.+.@.@.*.@.=.$.{ 3.R.gX;X<X+XU.1X4X<X",
"*XiX~.1XvX1X^./.t.$.%.+.$.+.+.+.+.%.*.*.*.,.>.#.X.#.%.@.=.*.0.,.@.@.$.} X.&.fX:X;X1X+X+X1X4X",
">X3X~.1X~.~./.T.<.%.O.+.>.+.>.>.+.%.*.-.-.-.>.;.X. .%.$.*.@.,.>.,.+.O.$.+.o.z.>X^.^.1X1X<X4X",
"3X@X+X+X4X^./.t.} O.` +.+. .>.>.#.%.$.*.-.-.,.+.+.+.%.*.*.@.>.<.>.$.O.+.o.X.x T.=X;X<X<X<X+X",
":X^.,X1X~.^.F.x +.@.@.@.>.' ' +.X.o.%.*.-.-.,.>.%.@.*.` %.@.>.#.} 1.$.O._ 7.s s.Q.4X@X@X<X~.",
":X*X@X<X^.^.t.o.%.@.@.+.' +.' ) o.o.$.] -.-.-.,.,.@.@.*.@.+.X...} <.$.O.%.6.X...!.>X^.~.^.~.",
">X;X<X<XNX^.x o.O.` @._ ' ' ' ) o.} +.,.-.,.,.2.>.+.@.%.@.#. .X.#.+.+.$.$.( 5.v c.=X^.~.4X^.",
"*X3X2X@X4Xv.x &._ @.@.' ) O.' _ } } +.,.,.2.2.2.;.#.@.@.%.%.o.X.#.} } @.q._ #.{ u.fX>X^.4X^.",
"-XyX@X^.fXy.o.%.` *.0.+.) ) ' +.} %.' >.2.2.:.Z :.;.+.@.@.%.+. .{ #.O._ =.@.%.X.&.Q.=X^.^.^.",
"-XoXD.;X*Xy.{ $._ ` +.+.>. .' ' %.%.[ } 9.a 3 p a r.| +.@.` _ %. .+.+.@.` @.@. .o.R.gXW.~.I.",
"dXi.i.DXW.Z &.} @.] >.+.<.<.>.,.[ =.w.X.f 2 1 1 1 f :.#.` ` ` O.}  .O.@.*.` @.#.o.B.Q.l.K.^.",
"0Xk.P dXE.4./ ) _ ' O. .| )  .' ] _ / :.p 1 1 . @ p Z  .+.*.0.%.+. .+.@.] @.%.#.o.F.R.I Z.^.",
"6XL P SXW.n 5.1.@.@.+.X.X.;. .+.,.^ :.:.3 # . . @ 3 8.| ' ` @.+.} +.%.@.*.@.$.+.o.!.^.L l.^.",
"6Xj.g.cX=X4.| ( @.+. .X...;. .#.>.| 2.B p 8 o . & 3 8.2.>.) O.1. .+.%.@.@.@.%.#.x R.4Xy.k.+X",
"g.f.l l.|.u.X.+.O.O.| ..b v { d s x b j E ).~ m.M h d d ' ' +.<.+.$.@.@.@.@.+.X.&.R.^.y.D.W.",
"eXW k oXW.p.7.e.1.1.5.3.3.:.| { x Z Z j j t N F 8 N a f d ) | / #.$.@.@.@.%.#.X.t.Q.W.y.K.:X",
"BXA.D tX-Xc./ } +.$.<.5.5.:.;...n Z B P N @ O o @ A V V d :.2.3.$.+.@.@.@.+. ...u.gX^.i.W.;X",
"wXU.S K.W.N.v o.%.[ ` @.+.;.) b c V p.h.M.q . X M .Xh.r.Z f d 6.+.$._ @.$.%.o.o.B. X XM.W.-X",
"qXU.S ^.K.R.t.&.+.w.*.] ' ' b 7.x.N.F.h.h.W k S g.i.h..Xx.x.4.d >._ $.%.^ &.o.4. X=X-XM.|.8X",
"tXL.L U.~.D.c.v +.=.` *.+.;.t. X-X$X0XcXxXCXC.].cX`.8XcXD.8XfXt.+._ q.%.o.6.v z.Q. XOXD.8X2X",
"tXoXU D.2Xv.W.7.} ` ] @.' s s.W.D A..X$X].rXC.Y.N..X$X`.D.R 0Xp.{ q.+.%.=.o.x T.F.W.K.D.tX%X",
"|.9XL Z.,X+X XB.#._ w.@.{ b N.D.9 A.tX8X%XvX_.{._.|.0XeXJ.$ G.N.o.6.%.&.o.o.t.!.W.|.k.D.wX].",
" X8Xf.U 1X,XOXfXd.} _ $...Z -X#Xk C.$XdXvX].C.W .X0XxX#XG . D.0X7.^ o.o.x u./.!.:XOXf.D.uXwX",
">XOXI.S 1X+X*X XXXd./ | b a.W.Z.@ 9 J i.W W 9 . J h.f.M o # m..Xs.v o.n u.!.NX/.9X$XL L.aXwX",
";XoXU.S U.tXOX XXXXXt.n b W.OXL h # 5 h.Z.A.K C.J.k.5 # 3 1 x..XE.4.n &.!./.Q.Q.OX%XL %XqXqX",
"+X%XqXL k.>X>X^.Q.>XfXy.I |.|.C B p h `.#X7X_.zXZX(.S.4 5 B j 0X.Xa.Z F.gXQ.F.F.NXI.L 6XU.oX",
"<X+X@Xl P ^.W.3X:X;XH.F.D.H.g j 8.c a.n.E (.m.Q {.C.S.k B 8.a a .XF.F.^.F.:X3XK.tXk.k.dX$XtX",
"%XU.uXP m kX^.>XOX$XL.'.8XC p Z Z A m.(.m._._.(.).! Q 1 B V V j l %XP.K.@X4XK.tXaXl.`.6X|.dX",
"].].iXI.z 3X@X@X%X+X'.].n.1 6XH.a.8.8 8 N G Y N i = 7 @ B a.x..X2 k.U.U.MX@X@X<X%XJ #XH.F.OX",
"+X1X~.uXp I.vX1XaX%XL.aXg h DX#XdXh.4   . . @   o     # A 0X|.SXl K nXL.<X2XiX&XL.L xX<X6XdX",
"2XuX+XSXS l.mX<X<X+XpXD.@ G.5X7XcXJ = X   o O < < + X @ p 0X6X].Z.k rXU.~.&X+XaXj.W qXqXsXyX",
";XyX1XNXS.K 1X1X&X+X8Xp D xXrXrX[.u       o o o o     . 4 g.L.'.eXk k.sXP.<XiXaXU J.qXqXaXuX",
";X8XvX~.vXD U.wXqX`.D.5 xX`.C.H 7 F * +   o o o , o .   t 9 b.zXqXL.h I.oX<XoX%XS %X%XqX6X&X",
"<XpXtX'.eXk g.VXJ.xX9 J.VXn.7 q $ u T y r +   > r     ; ; . b.CX].pXD.z pXP.aXJ.g.pX%X5XoX6X",
"<X+X5XaXBXW L xXxXW W VXCX! 4 # X y - % %   : %   ;     % 6 e b.zX7XSXW J CX].k.D.%XL.tXsX&X",
"iXsXnXtX8XG.k Z.n.R [.ZXn.Y 4 @   6 r     r 6   . % 6 X : r 6 F _.$X#XxXk J Z.5 g.5X6X&X&X&X",
"4X<XqXsXxXJ.& 5 w A.VXCXG . & . + o M y 6 6   $ X   X .   X : & q `.zXrXrX2 h @ # Z.qX%X2XyX",
"@XNXiX&XaX#XW H k S.J.! b.T   $   . r Y y       % 6   %   .   & 4 Q b.[.zXE = D n.5XeX#X;X2X",
"4XNX<XiXSX5XG.h 7 rX(.{.[.Y ;       ; : .   .     r     .       . & . & FXQ . E `.].5XqXhXtX",
"NX4XuXSX`.D b.H A._.}.}.q = 6   %             +   + :   O   O   . . . . ).}.7 Y zXeXaX%X6X&X",
"4X4XmXSXVXxXFXG & ! ZXF   : %     0 +       =       O         +     .   Y ).8 zX{.Z._.'.<X+X",
"NX4XsXSXxXzXFXm.+ [.S.    X *   + * > : +         + +             +     - : y ! . @ & 5 `.$X",
"iXNXnXaXzXCXzX).i G =   +     +     + O     +   0 > *             + + O : O . 4 t 4 & @ A.SX",
"iXNXDXrXCXCX[.}.: =   +     o o   + - , O + O <                       < > > > = 0 4 M & @ A.",
"NXuXFXxXzXzXS.% X   X       >       o +         O O O + +       o         - > O X   $   t CX",
"DXBX5XCXzXY .           o   < o , - > r r > r > > , O o         +           +         4 G ~ ",
"bXSXCXrXq . % $       +       e       o                             o +   o O     o X .   . ",
"aXBX5XE $         o   o   o o e -     +               + +                       + u r + .   ",
"xXrX`.. @           o   o   o o > +                                         o o o + r T y F "
};
