/* XPM */
static char *_78f5c1b26d84c3af28675822cd8380aNBXeLiEPvxkJPEDo[] = {
/* columns rows colors chars-per-pixel */
"66 66 17 1 ",
"  c #2C2C2C",
". c gray33",
"X c #484848",
"o c gainsboro",
"O c #202020",
"+ c gray22",
"@ c gray55",
"# c gray66",
"$ c #C0C0C0",
"% c #D0D0D0",
"& c #B4B4B4",
"* c gray44",
"= c #7C7C7C",
"- c #646464",
"; c #989898",
": c #ECECEC",
"> c black",
/* pixels */
"                                                                  ",
"..........XooooooooooooooooO+@#$%%%%%%$$#@.OXXXXXXXXXX..........  ",
"..........Xo%%%$%%%%%%$%%%@O+@$&@#@@@@@@#.+O+*@@@@@@=*-XXXXXXXXXOO",
"@@@@@@@@O.Xo%$&%&%$&%$$&%@-O+#o#@#@#@#@#@.+O+@oooooo$&#@@@@@@@@@XX",
"%o%%&#@@O.Xo%####@####;##=.O+@$@@@####@@*.+O+@oo$$$%ooooo%%%%%%%==",
"######=*O.X:$;######;#@##*.O+X#@##@@#@#*..+O+@o&#@#@###@@#@#@#@;XX",
"&;#;#@=*OXX:%#@#;#@;;;@;#@.O+X=@@#@##@#*+++O+@o&@#@;@@@#@@;;#;@#-=",
"&&=&@;-.O+X:%@;@###@=@;#@-.O+XX@###@@@#*+++ +@o&#@;=#;=@#@##@=#;.=",
";##;;*XXO X$$#;#@#@;@;@@#*.OOX.X=+++++++++O +=oo@#@=;=;@#@;=##=@X*",
"@@@@*.XXO X#:###@@;@@@@#@.= O+X+++++++++OOOXXX$%@@@;;;;@@#@##@#@--",
"****.X++O X@o@#@;=@@#@#@#*. O+X+  OOOOO    X.X$&@#@#@@@**-------.X",
"..XXXOOOO X*o#@;===#;@@=@*-+O+XXXX*=@####;*+.X&@**---....XXXXXXXXX",
"OOOOO    +.Xo%@@@;;@@#=@#@.+O+X*##oo:o%%;*.O.X@*--.XXX+++++     ++",
"         +.X#%@#@=@#@@;@@*.+O +#$o%&@#@#@*+O+++++++++++  OOOOOOOOO",
"++++++++++.X@%#@#;@=@=@#@..+O X#o$#@@@@@@.+O+          +++++++++>>",
".X++++++++.X*$@#;@#;#@#@#.*XO X#:#@@#@#@#.+O+X....OXXXXXXXXXXXXX>>",
";;;;;;;;; O.X$$;@@;;=@@@@*..OOX#:@@##@#@@.+O+*#oo.X.=;;;;;;;;;;;..",
"%%%%%%&&*+O.X@$@#@=@@@#@*@*XOOX#%##@@#@#@.+O+#o$#OX=$ooooooooooo==",
"#;@#@##**+O.X*;#@##@#*@*.*.XOOX#%#@****...+O+o$#@OX;o%&&&&&&&&&&-.",
"#@#@#@@**+OX.X;;****..*.*.X OO #@*@*+++++++O-o&@@OX;o&#;#;#@;@;;-X",
"#;@#@##*.+OX.X-....XXX+ OOOOOO @*+++OOOOOOOO-o##@OX;o#@;@;@;==@@-.",
"#@#@#@@*.+OX.X    OOOOOOOOOOOO +.+OOOO      @o##@OX@$@#;#;#@;@;;-X",
"@#==@@#*.+O+..X+OOOOOOOOXXXXXXX@@;##;@@=. +-$o#@=OX@$#@;@;@;==@@X-",
"@@==@#@-X+O+@oooo$&#@-+X-=##$$%ooooooo%;-O+=o$##*OX=$#;@#@#@==@;XX",
"@@##@@@-X+O+o$#;;;#;;+.X=%::o$&$$$$$$$$*.O+@o&;@*OX*$@#;@;@@#@#@X.",
";#@@#@*.++O+o#@;##;;#O.X;:$@#@#;@#;#;@@-XO+@:#@#.OXX@*-...--*=@@.-",
"-----.X+++O+o###@#@#-OXX;:###@=##@@@#@#.XO+@:##;.O.O++XXXXXXX...++",
".XX+++OOOO +o@#@#&@=-OXX;:@#@;#@@=@#;@@.XO+@:@#@.O.+OOOOOOOOO++X O",
"OOOOOO   XXXo#;@#@#=-O+X;:;@#@@=@=@@@#@.XO+@:##@.O.+++++++   OOO>>",
"X--*@;@@@@XOo#=;@#@=-+OX;:#@@@=@=@#=@@#.XO+@:;##.O.XXX.......+++O+",
"-@&ooo%%%#*Oo##@=@#@-+OX@o$;@#@#==@=@#@.+O+@o@@#.OX#oo&@-.XXXXX.+X",
"-&%%$&##;#XO:;;#=@#;*XOX=%$#@@=@==#@#@=.+ +@o#;@.OXo@@&oooooo;+.+*",
"-o&##@#;#@*O:;#;##@#*XO+.$:##;@#@#==@#*.+ +@o@#@.OXo@@##@@#@@=+.+=",
"-o&;@#@#@#*O:;@;#@#@-.O .#:###@@=@==#@*X  X@%##@.OXo##@@##@#@-+X+=",
"-o#;#@##=#.Oo###;@;#-.O .@:$#@#@@;@#@#-XO X@%#@#.OX%#@##@@#@#-+X+=",
"-o&#@@#;#@.Oo$=;=##;-.OOX*%$#@=;@@;@;@-+O X@%@#..OX$###@#@@##.+X+=",
"-o&@##@#@#.O$o@;#@;@-.OOX.&o#@#@#@#@@-.+O+X=#=.+++X##@##@#@@#.+++=",
"-o&##@#;#@.O&o=#@@@#*.OO+.@$#@=--.XX++++O+X.++++XXO*.X........+++=",
"-o&@##@#=#.O;o;=##@@*.OO+.X@@-.X+OOOOOOOO+X.XX.....OOOOOOOOOOOO++=",
"-o&@@;#@#@.O=o#;#@@#-.OO XX+   OO        +X..XXXXXXXXX+++++++++++=",
"-o&##@;#;#.O.:@#@@#@-.OO XXX+++++XXXXXXXXXX..=================+.+=",
"-o&@@#@#@*.OX:#@@=@#*. O +-=============@@;;#&&$$$$$$&$$$$$$$=+.+=",
"-%&##;#@#.O X:#@#@@@-. OO+=$$$$$$$$$$$$$$$%oo:::::::::::oo%%;- X+*",
"-%&;#@##@.O X:@#=;@#-.+OOO=$%::::::o::o::::::oo%$&$$$#$$&$$&=. X+*",
"-$&#@#@@@.O+Xo##@#@@-.+OOO=$%&$$$$$#$$#$$$&&#;;@@#@#@@@#@#@#*. ++=",
"X$@@#@***.O+X%@@#@#@*.+OOO-$o&@@@@@@#@##;@;###;=;@##;@#@###@*. +O=",
"X&###@...O +X&#@@#@@*.+OOOX$o$@;@#@#@;#@@;##@;@;@@=@;;@#@#@#*. +O*",
"X===.....O +X;;#@@@*-.+OOO &o%##@@@@=@@#@;@#;=@@#@@#@==@=;@;*.O+O+",
"X+OOO....O+XX=------..+OOO #o%@@#@#@@#@==;;@#@#;@#@@=@@@#@==*.O+O>",
"...X+OO O +X+++++++++++OOO @%&&@@#@#=@@;=;@;=#@@=@@@@#@=@;==*.O+  ",
"XXXXXXX   +X++OOOOOOOOOOOO @;*******#@##@@=@@@=@@#@#@@#@@@@;*.O+OO",
"X=####;@-XX.++            +.X++     .**=@===================-.O+O+",
"X#$ooooo$##@*-.X++++++++++X.XX++++++ X.......................O +O-",
"X#o##@$%ooo$########@@@==*--..XXXXX++             OOOOOOOOOOO +XO-",
"X#o###&&@#$oooooooooooo%%$$#####@X.X+++++++++               ++XXO-",
"X#o#@#==#;@=#@#@#@##@#@##&$ooo%$=+X.XXX+++++++++++++++++++++XXX.O-",
"X#%###;#@;@;#@@#==@#=@@@#@#@###=-O+.X#oo#=XXX...XXXXXXXXXXXX....O-",
"X#$#@#==;#@##;@=#=@=;@#@#@#@###-.O+XXo##oooo&..X&ooooooo%$&;=XX.O-",
"X#@----------------------------..+O+Xo&&&&&&&-.=o###@#@#;#@#o;O.O-",
"X@-+++++++++++++++++++++++++++++++O X&#&&;-;@-X&#@#@###@#@#@#.O.OX",
"X+OOOOOOOOOOOOOOOOOOOOOOOOOOOOOOOOO X+X+.-----Xo#;;##;;#;##@@.O.O>",
".X+++                               +..++OOOOO+...............O. O",
"....XXXXXXXX+++++++++++++++++++++++++....++++++..OOOOOOOOOOOOOO.  ",
"++++++++++++++++++++++++++++++++++++++++++++++++++++++++++++++++++",
"                                                                  ",
"...................OOOOO....XXXXXXXX............................  "
};
