/* XPM */
static char *e626f931907a4edda1484e1463e67abbPjfl3UiQ8bsdBfdd[] = {
/* columns rows colors chars-per-pixel */
"66 66 26 1 ",
"  c gray33",
". c #005858",
"X c #9CDCDC",
"o c #00A8A8",
"O c #20B4B4",
"+ c #48C0C0",
"@ c #00A4A4",
"# c #74C8C8",
"$ c #009898",
"% c gray99",
"& c #008C8C",
"* c #007C7C",
"= c #009C9C",
"- c #006C6C",
"; c #007070",
": c #D8F4F4",
"> c #008484",
", c #20B0B0",
"< c #007878",
"1 c #007474",
"2 c #B8E8E8",
"3 c #004040",
"4 c #646464",
"5 c gray22",
"6 c #202020",
"7 c #484848",
/* pixels */
"                                                                  ",
".XoooooOOOOO+++O+++O+O+O+OOOOOOOOOOOOooooooooooooooooooooooooooo.O",
".X@oo##@oOOOO+O+O+O+++++O+O+O+O+OOOOOOOOOOOOOOOOooooooooooo##@oo.O",
".X$@#%X&*ooOOoOO+O+O+O+++++++O+O+O+O+O+OOOOOOOOOOOOOOOOOOO#%X&*o.O",
".X$$#X@&*ooooOoOOOOOO+O+O+++++++++++O+O+O+O+O+OOOOOOOOOOOO#X@&*O.O",
".X&$$@&*o@@oooooOoOoOOOO+O+O+++++++++++++++O+O+O+O+O+OOOOOO@&*oo.O",
".X&&&$$=@@@@@-ooo-oOo-OOO-O+O-O++-+++-+++-+++-++O-O+O-O+O+OOOOOO.O",
".X&&&&$$==@@@@@oooooOoOoOOOOOO+O+O+++++++++++++++++++++O+O+O+O+O.O",
".X&&&&&&$$==;;;;;;;;;;;;;;;;;;;;;;;;;;;;;;;;;;;;;;;;;;:+++++O+O+.O",
".X>&&&&&&$$$;........;;;;;;;;;;;;;;;;;;;;;;;;;;;;;;;;#:+++++++++.O",
".X>>&,,@&&&$;.==$ooo@ooooooOoOoOOOOOOOO+O+O+O++++++++X:++++##@o+.O",
".#*>,X+&;&&&;.$$==o$o$@oooooooOoOoOoOoOOOO+O+O+O+++++X:+++#%X&*+.,",
".#**$+@&;&&&;.&$$===$ooo@ooooooooOoOOOOOOOOOOOO+O+O++X:+++#X@&*+.,",
".#***$&;;>&&-.$&$$$===o$o$@oooooooOoOoOoOoOOOOOOOO+O+X:+++O@&*o+.,",
".#***;;;*&>&-.&&$$$$$==o$ooo@ooooooooOoOoOOOOOOOOOOOOX:+O+++++++.,",
".#<****>>*>>-.&&&&$&$$$==$o$o$@oooooooooOoOoOoOOOOOOOX:O+O+O++++.,",
".#<<****>>>>-.&&&&&$&$$$$==o$ooo@ooooooooOoOoOOOOOOOOX:OOOO+O+O+.,",
".#<<<****>>>-.&&&&&&$$$&$$$==$o$o$@oooooooooOoOOOoOOOX:OOOOOOO+O.,",
".+<<>$$&**>>-.>&>&&&&$&$$$$$$==o$ooo@ooooooooooOoOOOOX:OOOo##@oO.@",
".+1<$O@&;**>-.>>&>&>&&$&$&$$$$===$o$o$@oooooooooOoOoOX:oOO#%X&*O.@",
".+1<&@@<.***-.>>>&>&&&&&&$$$$$$$===o$ooo@ooooooooooOoX:OOO#X@&*O.@",
".+11;<;;.<**..>*>>&>&>&&&&$&$&$$$$===$o$o$@ooooooooooX:oOoO@&*oO.@",
".+11-...-*<*..*>>>>&>&&&&&&$$$$$$$$$===o$ooo@ooooooooX:OoOOOOOOO.@",
".+;111<<<<*<..**>*>>>>&>&&&&$&$&$&$$$====$o$o$@ooooooX:oooOoOoOo.@",
".+;111<<<<<*..***>>>>>>&&&&&&$&$$$$$$$$====o$ooo@ooooX:ooooooOoO.@",
".+-;1111<<<<..****>*>>>>&>&&&&$&$&$&$$$$$====$o$o$@ooX:oooooooOo.@",
".+-;*$&>1<<<..*****>>>>>>&>&&&&&&$$$$$$$$$$====o$ooo@#:oooo##@oo.@",
".+--$O$&;1<<..******>*>>>>&>&&&&&&$&$&$$$$$$==$==$o$o#:ooo#%X&*o.@",
".+;-&$&;.11<..<******>>>>>>&>&&&&&&$&$$$$$$$$$=====o$#2o@o#X@&*o.@",
".+1;;;;..1<<..*<******>*>>>>&>&&&&&&$&$&$$$$$$$$=====#2$o$O@&*oo.@",
".+1;-...-11<..<*<******>*>>>>&>&&&&&&&&$&$&$$$$$$$===#2o$ooo@ooo.@",
".+<1;--;1111..<<*<******>*>>>>>>&>&&&&&&$&$$$$$$$$$$=#2==$o$o$@o.@",
".O<1;--;;111..<<<*<******>*>>>>>>&&&&&&&&$&$&$$$$$$$$#2=$==o$oo@.$",
".O<<1;--;111..<<<<*<******>*>>>>>>&>&>&&&&$&$$$$$$$$$#2$=====$o$.$",
".O<<*&*--;11..1<<<<*<******>*>>>>>>&>&&&&&&&&$&$$$$$$#2$$$o##@o@.$",
".O<<&@$*;;;1..11<<<<*<******>*>*>>>>&>&>&&&&&&$&$&$$$+X$$$#%X&*=.$",
".O*<&$&;.-;1..111<<<<*<******>*>>>>>>&>&&&&&&&&$&$$$$+X$$$#X@&*$.$",
".O*<;;;..--;..1111<<<<*<******>*>*>>>>&>&>&&&&&&$&$&$+X$$$$@&*o=.$",
".,**-...---;..111<1<<<<*<********>>>>>>&>&&&&&&&&&&$&+X$$$$$$$$$.&",
".,**<<11;---..1111<1<<<<*<******>*>*>>>>&>&>&&&&&&$&$+X$$$$$$$$$.&",
".,**<<<1;;--..11111<1<<<<*<********>>>>>>>>&&&&&&&&&&+#$$$$$$$$$.&",
".,***<<11;;-..;11111<<<<<<*<******>*>*>*>>>>&>&&&&&&&+#&$$$&$$$$.&",
".,**>$&<;;;-..;;11111<<<<<<*<********>>>>>>>>&>&&&&&&+#&&$o++@&$.&",
".,>*$O$&;1;;..-;111111<<<<<<*<******>*>*>*>>>>&>&&&&&+#&$&+X#&*$.&",
".,>*&$&;.1;;..-;;111111<<<<<<*<********>>>>>>>>&>&&&&O#&&&O##&*$.&",
".,>>;;;..11;..--;;111111<<<<<<*<******>*>*>*>>>>&>&&&O#&&&&@&*&&.&",
".,>>-...-11;..---;1111111<<<<<<*<********>*>>>>>>&>&&O#&&&&&&$&&.&",
".,>>***<<<11..---;;11111<1<<<<<<*<******>*>*>*>>>>&>&O+&&&&&&&$&.&",
".,>>>**<<<11..;---;;11111<1<<<<<<*<********>*>>>>>>>>O+&&&&&&&&&.&",
".,>>>***<<<1..;----;111111<1<<<<<<*<******>*>*>*>>>>>,+&&&&&&&&&.&",
".,>>>$&&*<<1..;;---;;111111<1<<<<<<*<********>*>>>>>>,+&>&&OO@&&.&",
".,>>$O$&;<<1..;;;---;;111111<1<<<<<<*<******>*>*>*>>>@+>&>OX+&*&.&",
".,>>&$&;.<<<..;;;----;1111111<1<<<<<<*<********>*>>>>@O>>&O+@>;&.&",
".,&>;;;..<<<..1;;;---;-1111111<<<<<<<<*<******>*>*>*>@O>>>&@&*;&.&",
".,&>-...-*<<.-&&&>>>>>>>>&&&&&&&&&&&&&&&&&&&&&&$$$$@@@O>>>>&;;&&.&",
".,&>>>>***<<.>$$&&&&&&&&&&&&&$$$$$$$@@@@@@@@@@@@@@,OOOO>>>>>&&&&.&",
".,&>>>>****<<111;;;----;-111111<<<<<<<<<**<********>*>>>>>>>>>&&.&",
".,&>>>>****<<31113;;-3--;3111311<3<<<3<<<3*<*3***3>*>3>*>>>>>>>&.&",
".,&&*$$<***<<<111;;;;----;1111111<<<<<<<<<<*<********>*>>>>@@&>>.&",
".,&&$+,*-***<<<111;;;----;-1111111<1<<<<<<<<*<******>*>*>*@#O&;>.&",
".,&&$,>-.***<<<111;;;;----;;1111111<1<<<<<<<<*<********>*>@O@>;>.&",
".,&&*--..****<<<111;;;-----;11111111<1<<<<<<<<*<******>*>*>>>;;>.&",
".,&&-...;****<<<111;;;;----;-11111111<1<<<<<<<<*<********>*;;;>>.&",
"444444444444444444444444444444444444444444444444444444444444444444",
"555555555555555555555555555555555555555555555555555555555555555555",
"6 5 77777 777777 757777777      777777777       777755577  7777755"
};
