/* XPM */
static char *a3905fc9114c439b87965d92f73bed27ZWlL9Fxu23sUsMs3[] = {
/* columns rows colors chars-per-pixel */
"43 64 256 2 ",
"   c #020204",
".  c #080408",
"X  c #020113",
"o  c #0A041A",
"O  c #150B18",
"+  c #140D12",
"@  c #30190E",
"#  c #080324",
"$  c #150928",
"%  c #181329",
"&  c #170935",
"*  c #1A1437",
"=  c #0C0F32",
"-  c #27193A",
";  c #371834",
":  c #27132D",
">  c #302631",
",  c #292517",
"<  c #4E0A02",
"1  c #65180F",
"2  c #552611",
"3  c #722C0F",
"4  c #4C3239",
"5  c #7A3728",
"6  c #75312A",
"7  c #4C1738",
"8  c #5B4630",
"9  c #784529",
"0  c #704C32",
"q  c #72421C",
"w  c #14094B",
"e  c #261845",
"r  c #291757",
"t  c #2E134A",
"y  c #2B2347",
"u  c #362747",
"i  c #3A2557",
"p  c #372D55",
"a  c #160A68",
"s  c #2F1370",
"d  c #392669",
"f  c #362976",
"g  c #352972",
"h  c #4B1952",
"j  c #4E3151",
"k  c #6C3653",
"l  c #4B1472",
"z  c #452A6A",
"x  c #552A67",
"c  c #463377",
"v  c #523779",
"b  c #4D3070",
"n  c #693673",
"m  c #534851",
"M  c #684656",
"N  c #73504C",
"B  c #776956",
"V  c #594479",
"C  c #58456B",
"Z  c #674766",
"A  c #665878",
"S  c #775978",
"D  c #704D6F",
"F  c #766A75",
"G  c #8B2F10",
"H  c #8D3829",
"J  c #83180C",
"K  c #90461A",
"L  c #8E4D30",
"P  c #AD502F",
"I  c #AB6735",
"U  c #9B5C29",
"Y  c #D26A38",
"T  c #CF5534",
"R  c #905149",
"E  c #AD544C",
"W  c #956B52",
"Q  c #B0714D",
"!  c #88566F",
"~  c #886678",
"^  c #92746F",
"/  c #AB7669",
"(  c #A95169",
")  c #CE6D4C",
"_  c #D27760",
"`  c #AA8E57",
"'  c #B98767",
"]  c #AD8872",
"[  c #928562",
"{  c #C8885A",
"}  c #D18A53",
"|  c #CD9471",
" . c #E89968",
".. c #DD873C",
"X. c #391A85",
"o. c #2A188B",
"O. c #39288E",
"+. c #301BA4",
"@. c #3C2BAF",
"#. c #4D198B",
"$. c #472686",
"%. c #493887",
"&. c #553688",
"*. c #4C3B98",
"=. c #553997",
"-. c #4F2994",
";. c #643B99",
":. c #6F318D",
">. c #4E32AA",
",. c #6B32AC",
"<. c #4F19A3",
"1. c #574799",
"2. c #55488F",
"3. c #65498B",
"4. c #775488",
"5. c #6D5395",
"6. c #756690",
"7. c #5849A6",
"8. c #574DB0",
"9. c #6949AB",
"0. c #6757AB",
"q. c #7659AA",
"w. c #6A47B5",
"e. c #6858B7",
"r. c #7858B6",
"t. c #764AAE",
"y. c #7565B9",
"u. c #786BAD",
"i. c #5237C6",
"p. c #6B37CA",
"a. c #6849C5",
"s. c #7756D7",
"d. c #7053CD",
"f. c #7965C9",
"g. c #786ACB",
"h. c #6A53DD",
"j. c #3B2BC2",
"k. c #9134AB",
"l. c #9734A4",
"z. c #8A568C",
"x. c #897998",
"c. c #906F8F",
"v. c #AC728E",
"b. c #865AB7",
"n. c #8E55B0",
"m. c #897AB7",
"M. c #957BB7",
"N. c #8D69AE",
"B. c #AB6EB0",
"V. c #A553BE",
"C. c #9F32C2",
"Z. c #8B5BCA",
"A. c #8C58D2",
"S. c #AC51CC",
"D. c #8966C8",
"F. c #8778CB",
"G. c #9569D7",
"H. c #9776D6",
"J. c #9070D0",
"K. c #AE72D2",
"L. c #9171ED",
"P. c #A677EA",
"I. c #B075EF",
"U. c #9258EB",
"Y. c #C475D7",
"T. c #CA73EF",
"R. c #7883D5",
"E. c #958990",
"W. c #A78798",
"Q. c #AD8B8D",
"!. c #9889AF",
"~. c #B796A7",
"^. c #A897B9",
"/. c #B08EAF",
"(. c #B5ABB2",
"). c #B4AF9C",
"_. c #C6978A",
"`. c #D6A686",
"'. c #D2B295",
"]. c #F1B68F",
"[. c #CC95AF",
"{. c #C6A8B8",
"}. c #CDB0B3",
"|. c #E6B8AC",
" X c #F49382",
".X c #F9C393",
"XX c #FACDAD",
"oX c #D8D3B3",
"OX c #9587D1",
"+X c #A787CA",
"@X c #B697C9",
"#X c #A784D9",
"$X c #B888D9",
"%X c #B598D5",
"&X c #AB90CB",
"*X c #B7A5CA",
"=X c #B4A9D3",
"-X c #948AE8",
";X c #A988E4",
":X c #AA98E6",
">X c #B887FA",
",X c #BC98F8",
"<X c #B090F2",
"1X c #B6A6FB",
"2X c #B5AAEC",
"3X c #CB90D1",
"4X c #C7A8C9",
"5X c #C6B5C9",
"6X c #D5B8CA",
"7X c #C7A8D7",
"8X c #D3A6D8",
"9X c #C9B6D9",
"0X c #D6B7D7",
"qX c #D5AAC7",
"wX c #E6AFD2",
"eX c #C789FB",
"rX c #C797F9",
"tX c #CD93EF",
"yX c #F394FD",
"uX c #C7A6E6",
"iX c #C6B8EA",
"pX c #C9A9F7",
"aX c #D9A7FC",
"sX c #C8B8FB",
"dX c #D8B8FC",
"fX c #D9B1E9",
"gX c #E7A8FC",
"hX c #FBAAFC",
"jX c #E9B7F9",
"kX c #F5BAFC",
"lX c #EDB1E7",
"zX c #E498D6",
"xX c #D9C5DA",
"cX c #D4C9CD",
"vX c #E6C9D8",
"bX c #EFCBD2",
"nX c #DAC6E7",
"mX c #CCC5FF",
"MX c #D9C7FA",
"NX c #D8CFEE",
"BX c #E7C9E7",
"VX c #E8D7E9",
"CX c #E6C9FB",
"ZX c #FCCBFF",
"AX c #F7C5FD",
"SX c #E9D6FB",
"DX c #FDDBFF",
"FX c #F7D8F9",
"GX c #F7D1E8",
"HX c #FDE3FE",
"JX c #FEEBFF",
"KX c #F7E5F8",
"LX c #FFF2FF",
"PX c #FCF8FE",
"IX c #F0E6F3",
"UX c #F7E8D2",
/* pixels */
"X X         o o # # o o : . $ = = * * * - = y = = y = & * & * - $ - * # C m X $ o     ",
"X X   . O % * % & # o $ % % y = * - = * = y = y * * y * = y e & * e u e b p * X X X   ",
"X o % * = * e i i y j - * * d r y e - * u p > y y * y i w e e w d 2.3.V w e & % o .   ",
"# # e y i g z &.V v C i i r r w - - u - u % - - y e & e r r V V u.OXCXc z z 4.u - O   ",
"X # j c %.&.%.1.q.z z z i r r r - O : j : > - 4 : e e * r d g g f N.DX&.b b uXv - : O ",
"o $ d 3.q.r.=.s 3.s &.r.&.r z t u ; C M ; ; j D j u i i d f s *.=.D.3.;.b.i V i - y p ",
"e & w 1.#XP.9.s O.#.w.-X#X2.u ; > S W.c.D 2 ! c.~ j j d g 1.OX1Xf.s $.r.b.&.uX3.& $ & ",
"y i z ;.r.9.*.X.>.a.@.i.,X0.j D j /.M [.6X~.bXQ.M 4.z V c q.MX-X=.>.>.s ;.dXZX5.d e # ",
"& b r.=.$.$.s *.d.h.h.@.g.9.V Z Z 4X~ k bX{.bXM ~.c.j 6.d :X,X*.d.h.h.>X>XH.w.b.v - # ",
"w s q.r.$.#.$.t.J.g.h.*.=.9.3.Z k W.v.m ~ Q.N S W.c.h v 3.q.J.=.s.L.L.gXI.G.r.J.v & # ",
"& w z &.b b N.MXJXSX:X%.d 3.5.x Z {.qXv.M Q.M [.}.v.h k n c :.;.a.a.U.A.d.-.t.b.l w & ",
"t i r x n n /.LXKXPXJX5.V 3.c.D D }.VXbX^ ~.|.vXvX/.j x 4.x l l ;.H.1XA.,.#.,.;.l $.r ",
"& : ; x k D 8XDXJXLXLX6.C ~ /.k D ~.6X6X~.}.GX}.~.c.j M 3X! x h +XDXDXjXb.,.#.:.b.J.s ",
"h j j h h x n.Z.b.#XMX!.Z /.lXc.D /.{.6X5X}.}.}.W.v.7 ! lXv.h k DXHXAXAXV.l l S.aXeXl ",
"t x n n z.l.<.p.p.p.p.$.4.qXGX_.D qX6XGXvXcXxXVX(.v.4 /.wXzX( ( DXAXZXkXB.l ,.eXeXK.#.",
"t h k n n :.k.p.p.p.,.s $XlXwX[.~ 4XFXKXVXPXKXGX0X~ k wXwXkXhXY.ZXZXgX3X:.V.T.S.I.K.Y.",
": h h n :.n l ,.<.C.,.#.Y.lXwXzXB.qXGXHXHXHXDXZXjXz.[.zXlXhXl.zXyXS.C.k.C.T.K.V.Y.aXAX",
"; 7 h &.n n :.l <.,.<.<.l.3XzXlXzX8XwXGXGXDXZXAX3XB.qX[.GXhXl.l.C.C.C.S.T.T.S.V.3XlXKX",
"~ ! x h l x :.:.:.,.Z.V.V.B.zXZXkXfX0XCXBXCXjXfX4X8XlXwX[.zXY.Y.S.S.C.Y.T.T.S.B.3XjXIX",
"qXB.S x x x n.3X3XT.K.I.Y.Y.zXkXjX8X8X8X8X*X7X6X0XvXGXGXlXlXhXY.T.Y.S.V.S.S.Y.jXAXFXIX",
"xX/.@X&Xc.z.4X8XtXrXeXtX$XK.tXaXFXfXBXNXnXxXVXVXIXJXFX4XDXAXkXgXzXB.V.B.B.B.K.jXCXFXHX",
"VXSXSXCX8X~.5X8XaX>X>XP.K.H.pX2X7X!.4.C j u m D c.5XPXCX&XN.D.uXZX/.B./.3X8X4X0XFXFXJX",
"SXHXCXCXFXBXvXDXFXJ.h.p.>.q.=XF % . O % : % % + + . m !.3.q.s.w.*XVXxXqX0X6XfXVXBXiX(.",
"DXSXMXHXKXVXIXLXsXd.L.s.w.0.NX^.> > , > : % > > > , A E.u.f.-Xg.6.PXIX6XvXxXvX4Xx.x.x.",
"FXnXFXKXPXVXIXPX-Xh.s.g.u.PXPXIXW.m , . ,   , + % F NXx.m.g.-Xg.6.PXPXNX5X*XE.E.E.^.OX",
"LXHXSXuXNXNXiXPX1X@.h.8.2XPXVXF u E., , B B m + F A m 6.=X6.e.O.2XPXmX=X5X^.^.*Xx.2.c ",
"UXKXnX%XmX2Xg.mXmX0.f d ^.VXN + 6.d j B B ` B 4 A x.* 6.PX2.V 6.mXmXmX6.nX=X=X=X^.A C ",
"PXvX9XmXIX-X0.-XOXOX2X9Xc.W 2 [.JXb 8 B ` ` ` 4 j A 9Xm xX=XxX=XOX:X2X6.mX*X=XSX=X^.=X",
"HXHXSXsXiXOX1.g.8.u.SXoX| Q E k c.z.E.0 '.'.^ ^ v.}.JXm }.W.xX@Xg 2.f m.PXMX7X5XxXxXSX",
"HXHX7X^.2XmXy.2.7.m.bX' { }  XE k N ~.R '.UX/ _./ Q.W N cX^ E.9X6.0.&XSXnXVX7X5XNX9X=X",
"DXfXnXmXNXiX2XmXSX8X/ Q } Y Y _ W 0 ^ ` L U / | L 2 W ] ^ ~.S ^.mXSXSX=XBXFXW.FXNX=X*X",
"DX7XMXIX=X2X2XR.;X4.2 E Y Y Y T I q ' | W ` ' | L ' / XXW Q.N Z !.!.=XSX0X{.xX6XxX=X&X",
"ZXuXDXmXiX1X<X>.=.h 2 Q P T Y Y Q G } ]. .Q .X`.q W `.|.B Q.N ; v O.OXMX9X@XlX&XOX2Xm.",
"DXCXpX:XF.g.J.-.l h 6 I P .. .U ) P U ]. .` .XU U | / `.| [ L B j x MXSX7X7XB.4.b.:X&X",
"LXiX7.>.i.d.,XB.7 1 6 P ..Y K U ].].q I ` Q } { ].`.W W ` W [ ] k ! JXKX!.SXn.s w.1XSX",
"IX:XO.+.i.s.K.B.E H J G ) I I { |  .U ` |  ..X.X.X| 3 L ' 0 ` 9 U 9 _.(.0X+Xn.-.>.<XPX",
"u.u.@.@.i.h.G.B._ _ G J G 3 I XX].`.| .XXX .| .XQ 1 I | L 2 W 9 I K 0 Q.SXm.t.,.>.a.,X",
"2.OX8.+.@.i.K.v.E  XT P G 1 U | `.XXXX].{ { .X` 2 I ]..XQ @ / | } I W vXMXpXP.w.s.s.L.",
"0.8.8.+.8.a.N.B.( | ....) } / 1 W `.| ' ' ` U 1 K  .XXXXQ 0 ^ '.| L [.SXMXrXrXI.I.U.L.",
"R.O.8.o.*.>.&.+XD W } ..} ) H 1 6 0 `.' K q 3 < ` XX ..XW 2 W oXN v.fXuXuXrXeXhX>XL.U.",
"%.g a a *.O.%.=XN.j 3 U | L G H 1 < < H 6 5 5 G { ].XX| W [ F E.x.%XSX;X;XeXyXhXeXL.U.",
"8.w w a f g 2.R.+Xx.N _.|.H P E 3 1 6 6 H 6 L 2 ' .X .W @ }.[ (.%XMXMX<X;XT.yXyXT.U.h.",
"R.2.w w g g s 0.F.N.fXbX/ L ) ) L 1 1 1 < < 1 @ I XX[ 2 8 ).m NXmX-X-Xg.P.T.T.yXU.p.<.",
"R.e.f f w O.s O.&.;XK.3X/ H E P P J H E R R H H | XXW 0 8 [ F =XmX8.h.@.G.I.T.eXU.p.+.",
"R.g.1.f s $.-.d.A.<Xb.gX/ / E ) ) T H 6 J R 6 6 |.].0 8 B B F *XmXR.8.j.@.L.I.T.p.<.<.",
"L.F.F.e.F.*.$.d.G.b.eXkXv./ _ ) ) ) E J R H L _.XXXX'.0 B [ E.!.dXe.h.i.i.>.A.P.p.p.i.",
"-Xw.f.L.-Xd.e.9.>.I.hXlXyX( ) ) ) T P 3 H H / bXXX'.oX] 8 F E.!.dX,.s.i.j.@.+.p.s.a.i.",
"P.A.a.f.J.,XJ.;.,.eXgXyXhXzXk P G 3 3 H ( v._.`.XX.XUX] F E.xX^.ZXG.d.@.+.@.@.a w.a.d.",
"w.D.w.D.rXdXjX$Xn.T.rXeXhXtX3XN 5 9 / N ~.KXc.k |.bX`._.8X$X+XSXKX!.O.s s o.O.o.X.*.g.",
"O.>.;.G.K.$XjXaXgXeXT.I.>XH.$Xz.W ] ^ ~ DXc.z.c.k [./ Y.tXK.q.%XPX!.2.f 1.O.7.d.0.*.7.",
"a s a <.b.K.tXkXDXjXgXeXA.G.<XM./ `.0 ~ D 4.N.h k [.B.B.3XrX5.F.2XmX:Xu.<Xg.e.f.e.7.q.",
"a s X.#.-.n.$XkXkXlXaXtXt.Z.G.n.^ W 4 Q.^.4.x z.[.wX[.Y.aXrX#Xe.2XmXg.8.8.7.g.7.=.1.r.",
"5.s #.X.#.A.gXkXAXDXAXn.:.rX>Xt.D Q.Q.W.4.4.8X~.! v.aXK.I.aX<Xg.-X2XO.1.7.*.d.e.*.2.5.",
"SXq.s s #.G.aXgXkXjXZX3XaXG.,.#.n.@Xc.N.6.fX4Xj W.lXjXaXP.I.<X<.OXg.s R.y.0.y.f r &.6.",
"KXvX@X9.,.Z.Z.rXDXkXZXaXtXn.&.#.,.t.u.K.=XuXS S /.jXaXeXa.h.p.o.R.R.a *.O.*.$.f 3.+XfX",
"UXKXJX%XG.K.;XZXAXkXjXjXaXG.;.l #.-.q.#XpX@XM z./.AXrX>Xp.>.i.+.g.e.%.2.1.y.u.!.CXMX0X",
").UXPXJXdX%X+X%X%XaXaXAXtX$XJ.n.#.$.w.H.aX7X3.D 4.CXrXL.s.s.L.e.R.u.g R.u.OXiXnX@X4X{.",
"oXQ.(.KXLXFX7XN.c.N.dXZXjXP.5.;.#.=.w.;XCXSXx.S 6.dXdXpXD.f.:X2X-Xu.r 6.MXMX%XS c./.}.",
").oX(.E.5XKXSX0X^.@XrXdXjXaX>X:.&.t.t.<XCXHX6X/.3XCXCXpXF.;XsX1XOX2XOXm.*Xx.c.F ~.{.Q.",
", E.5X(.E.F ).UXFXDXjX,XrXrXdXb.&.r.w.;XCXHXJXHXHXHXSXMXsXMXMX1X!.u.C p A x.c.W.~ B 4 ",
"  , !.IXVX(.cXPXVX4X&X#XH.H.b.r.q.r.r.H.dXCXJXJXJXSXJXSXSX1Xy.e.R.6.C A A A > 4 4 4 > ",
".   , 6.*XNXIXPX5Xx.q.+X#XD.b.n.5.q.d.Z.,X7XDXHXHXCXmX#X:X:Xg.F.OXV p u - O . . . . . ",
". . X * p p A ^.iXnX%XpXK.5.q.3.v 2.=.,.Z.K.dXjXpX;X<Xg.OXOX8.O.6.* * X O   . . + % + ",
"    . # # # % e j V N.+XH.+X+X!.&X:XH.G.>XrXaXuX<Xf.G.a.y.y.@.o.r = = X .   + +   > m "
};
