/* XPM */
static char *_4d4de19cfff4076df74b8eb3b49a633a1zItyM270OU9lsO[] = {
/* columns rows colors chars-per-pixel */
"80 80 256 2 ",
"   c #010001",
".  c #0B0101",
"X  c #060407",
"o  c #130000",
"O  c #1A0100",
"+  c #160904",
"@  c #191207",
"#  c #220100",
"$  c #2B0701",
"%  c #330C00",
"&  c #3A0900",
"*  c #2F1300",
"=  c #331300",
"-  c #391903",
";  c #2D1A16",
":  c #3C2306",
">  c #392A1A",
",  c #352724",
"<  c #461B04",
"1  c #4A1708",
"2  c #492709",
"3  c #552A0A",
"4  c #593609",
"5  c #492914",
"6  c #552C15",
"7  c #4B331A",
"8  c #5C3B1C",
"9  c #573517",
"0  c #4D300D",
"q  c #643C1C",
"w  c #643917",
"e  c #6F3411",
"r  c #5B3B24",
"t  c #583927",
"y  c #4E3125",
"u  c #633D23",
"i  c #683B27",
"p  c #753925",
"a  c #64382D",
"s  c #68431B",
"d  c #76471A",
"f  c #774815",
"g  c #5C4429",
"h  c #55452E",
"j  c #634323",
"k  c #6B4424",
"l  c #63432B",
"z  c #6B4C2B",
"x  c #6A4729",
"c  c #764A29",
"v  c #6C532D",
"b  c #73522B",
"n  c #795528",
"m  c #6C4B33",
"M  c #664936",
"N  c #754B35",
"B  c #6C5338",
"V  c #73543B",
"C  c #7B543B",
"Z  c #7C5B3B",
"A  c #775735",
"S  c #79633C",
"D  c #584216",
"F  c #7B5C42",
"G  c #755943",
"H  c #6F5243",
"J  c #7C6447",
"K  c #7C725A",
"L  c #78726E",
"P  c #863C13",
"I  c #843E24",
"U  c #904C18",
"Y  c #B05615",
"T  c #936719",
"R  c #B1691A",
"E  c #844929",
"W  c #88552B",
"Q  c #975729",
"!  c #865B38",
"~  c #985A35",
"^  c #944C2C",
"/  c #AB592B",
"(  c #89643B",
")  c #986A3A",
"_  c #917031",
"`  c #AB6729",
"'  c #A96838",
"]  c #B66937",
"[  c #AA7539",
"{  c #B87536",
"}  c #B36D2A",
"|  c #C8721B",
" . c #C9742B",
".. c #CC5816",
"X. c #865B45",
"o. c #8F5745",
"O. c #846344",
"+. c #8B6543",
"@. c #83634C",
"#. c #8C6B4B",
"$. c #886948",
"%. c #926C4B",
"&. c #966A46",
"*. c #8A714C",
"=. c #9A754B",
"-. c #977549",
";. c #896B53",
":. c #946C53",
">. c #8D7453",
",. c #8B7557",
"<. c #937453",
"1. c #9B7554",
"2. c #9C7B55",
"3. c #947C5B",
"4. c #9C7B5C",
"5. c #967758",
"6. c #A77749",
"7. c #B67746",
"8. c #A37C5B",
"9. c #A67A55",
"0. c #B1714E",
"q. c #9A7C63",
"w. c #8A7969",
"e. c #A47D62",
"r. c #B07D6C",
"t. c #C67947",
"y. c #C27952",
"u. c #7A8575",
"i. c #B98839",
"p. c #B68A33",
"a. c #93813F",
"s. c #C9892F",
"d. c #D6821F",
"f. c #9B835C",
"g. c #988351",
"h. c #A7844C",
"j. c #B7864B",
"k. c #A58254",
"l. c #AB8454",
"z. c #AD8C5C",
"x. c #A8855A",
"c. c #B48C55",
"v. c #B38C5C",
"b. c #B88858",
"n. c #B4925D",
"m. c #BB925D",
"M. c #B79459",
"N. c #B29256",
"B. c #9D8463",
"V. c #9C8869",
"C. c #928976",
"Z. c #A38463",
"A. c #AB8563",
"S. c #A48A64",
"D. c #AC8B63",
"F. c #A58B6C",
"G. c #AC8C6B",
"H. c #A7846A",
"J. c #B38D64",
"K. c #BA8D63",
"L. c #B48D6A",
"P. c #B78765",
"I. c #AC9369",
"U. c #B49263",
"Y. c #BB9464",
"T. c #BC9A65",
"R. c #B5936B",
"E. c #BB956B",
"W. c #BD9B6C",
"Q. c #B59967",
"!. c #A88B72",
"~. c #B38D72",
"^. c #AB9476",
"/. c #BA9573",
"(. c #BD9B73",
"). c #B69877",
"_. c #BCA279",
"`. c #B9A26C",
"'. c #C7864A",
"]. c #C78857",
"[. c #C4955A",
"{. c #D3944E",
"}. c #C29B64",
"|. c #C39C6B",
" X c #C59766",
".X c #D89966",
"XX c #C29C72",
"oX c #C69D77",
"OX c #C98F6B",
"+X c #E29E6B",
"@X c #C4A16D",
"#X c #C9A369",
"$X c #D9A469",
"%X c #C4A274",
"&X c #CAA474",
"*X c #C4A37B",
"=X c #C9A87B",
"-X c #D8A876",
";X c #DBB47B",
":X c #E4A974",
">X c #E6AE74",
",X c #D59F59",
"<X c #707A8C",
"1X c #728FA4",
"2X c #7FA2C0",
"3X c #8D8F92",
"4X c #B89C86",
"5X c #A9998A",
"6X c #B8A487",
"7X c #B2A794",
"8X c #899BAF",
"9X c #B4B1AC",
"0X c #9FA096",
"qX c #CA9C81",
"wX c #C5A482",
"eX c #C9A986",
"rX c #C9B489",
"tX c #D6B485",
"yX c #CDB192",
"uX c #E5B787",
"iX c #C9B8A9",
"pX c #D3BAA6",
"aX c #E2BDAB",
"sX c #BCC3B4",
"dX c #DCC28C",
"fX c #ECC78F",
"gX c #D8CBB9",
"hX c #DCD2BC",
"jX c #CCC3AC",
"kX c #E4D2BD",
"lX c #E7CEB4",
"zX c #EDE4BD",
"xX c #98B1C2",
"cX c #D7CCC4",
"vX c #DDD3C4",
"bX c #DDD6C9",
"nX c #D3CAC8",
"mX c #E2D5C3",
"MX c #E4DAC6",
"NX c #E3DACB",
"BX c #E9DCCB",
"VX c #E6D8C8",
"CX c #E5DCD4",
"ZX c #E9D6C8",
"AX c #EAE4D7",
"SX c #F6E9D9",
"DX c #F2E8D0",
"FX c #EBE9E6",
"GX c #F3ECE7",
"HX c #F7F3EB",
"JX c #F4F4F3",
"KX c #FAF6F4",
"LX c #FDFBF4",
"PX c #F9F9F8",
"IX c #EEEEF3",
"UX c #DFDEDE",
/* pixels */
"        X           X X IXIXAXGXGXHXFXFXGXGXIXGXFXHXGXGXIXGXGXGXIXIXGXSXFXHXHXFXGXFXKXGXGXIXFXFXFXIXHXFXIXIXFXHXIXIXIXIXAXSXFXHXSXSXIXUXIXX X                   ",
"    X                 X IXIXVXBXVXVXVXAXBXVXCXCXBXmXmXBXcXbXBXBXCXZXkXMXBXhXbXbXCXNXvXvXvXvXCXvXbXNXvXMXvXNXbXbXvXvXCXbXbXBXNXMXVXBXCXJXPXX                     ",
"      X               X JXUX5X^.4X4X).I.^.).).).S.D.x.Z.<.;.A.q.q.9.&.<.5.>.g.g.q.4.Z.Z.H.^.B.F.x.F.S.I.G.R.G.G.3.~.G.x.I.).`._.6X6X3XAXPXX X                   ",
"      X                 JXAX6XeXeXtX`.U.%XeXoX(.W.W.E.J.XXE.|.|.r.r.l.z.D.U.I.(./.(./.W.oX(./.oXL.J.n.`.|.E./.XX(.%X|.XXXX|.@X_.eX6XV.CXPX                      ",
"    X X                 JXCX^.rX=XeX&X`.&XeXeX=X@X&X=XXXE.=X%X%X|.|.K.XXE.(.%X&XoX*X=XXXE.*X*XR.L.L.K.W.J.Y.E.J.E.XX|.K./.oXoX=XeXeX!.VXLX  .           X       ",
"      X X               HXNXQ.=X-.k n _ %.A A ( W.k.s D.&XJ.=.|.[.Y.( N Z 1.Q.( x ! n d s s 8 2 x ( i k q 4 6 %.( 9 n q x :./.uXtX=X).VXLX                      ",
"      X   X           . LXbXI.`.k.0 2 8./.l 2 C R.2.2 R.oXN c L.b.}.8.q 2 i A.2.6 &.w A z 2 u $.6 1.u - b #.u 8 A.n - k C 2 X.(.E.=X).BXHX.   X         X       ",
"                .       LXvX`.@XXXs < +.yXC 2 V ).+.k oX/.8 3 A.v.6.P.8 1 6 &.8.q %.c J.X.$ 8 ).b Z.N - X.G.1.s E.A = Z H.N 5 q.%X%XI.BXLX                      ",
"                X       KXVXR.|.E.( 2 i ~.:.1 6 ).C ! /.8.< 2 :.Y.b.L.i 6 6 i 1.w &.1.P.G & 8 R.x.R.x % %.Z -.-.J.! % C (.#.< b =XrX^.MXLX                      ",
"              X       X KXBXG.Y.J.A.6 2 H.X.1 5 e.l e.).N < 6 x E.J.L.c X.< 6 X.i 9.K.P.F $ 6 /.U.Y.C & ( 4 -.U.U.&.# ! E.k.2 9 _.rX^.bXLX      X           .   ",
"                X   X   KXBXA.l.K.R.a 2 @.G 6 5 H N G.~.t G < 6 J.8.A.z 8.u - 8 8 1.x.J.X.% 9 R.v.J.C & 2 2 -.l.Q.( % F U.v.2 9 _.dX^.bXLX    X               . ",
"                      X KXVXk.l.z./.! 1 6 X.H - 5 ;.eX:.r e.t - %.L.8.u Z.2.< < 3 1.k.J.@.= g I.n.E.C & N w &.U.U.( % :.XX2.3 x =X6X^.MXLX                      ",
"                    X   KXVX2.b.b.}.1.2 6 e.:.2 1 ~.wXz 2 r 6 - k D.8.k 9.x.A < 6 9.b.K.%.= s U.c.|.N & o.X.&.&.=.+.& X.E.=.< x *XwXV.vXLX                      ",
"      X .       X       KXVXk.Y.[.m.x.3 q /.H.2 r wXwX9 +.).#.5 5 8.~.s 9.z. X9 3 A.l.m.8.% x W.h.T.X.1 :./.R.c l.! 2 Z /.( < :.%X6XV.bXLX          X           ",
"X             X   X     KXMXk.Y. XY.oXq i qX~.6 V eX:.0 D.R.H.t < X.5.6 -.n.J.%.1 r.l.Y.+.& x U.c.v.M y N -.b 9 J.b < V 2.0 8 A.(.=XI.MXLX    .         X       ",
"    X           X       KXBXk.m.[.m.XXX.#.~.H.#.5.L.j q A /.:.u u q N k n U.z.L.! 8.P.9.s 9 4 ( n.) i i 9 s s W -.s 8 q s b x.D.J.*XF.kXLX    .                 ",
"                        KXMX2.M.n.T.v.J.%X*XL.XXQ.Q.oXG.U.v.T.Y.v.j.b.b.m.x.v.b.v.K.b.[.Y.}.T.M.c.m.9.OXc.b.[.b.j.c.l.n.m.m.[.v.Y.(.V.vXLX                      ",
"                    .   KXmX1.z.n.|.K.oXwX6XyXeXrXdXyXyX6X(.`.`.c.j.j.].6.j.6.l.9.9.j.j.[. X#Xc.m.j.].j.c.h.j.v.Y.I.`.F.x.z.b.b.Y.(.!.MXLX                      ",
"                        LXmX-.c.m. X XwXq.<X1X3X3X1Xu.u.L K S _ T } } `  .}  .{ { [ ' 7.' [ [ ` { p.R T _ T S J K K L C.u.g.U.K.Y.XXF.BXLX                      ",
"                      . KXmX%.m.#Xb.OX!.w.<X2X2X8X8X8X1XL K g._ j.[.j.' t.` Q e 4 4 f f E ' ' j.s.s.s.{.p.a.S g.w.1X3X3Xu.w.*Xv.W._.V.MXLX                      ",
"                        LXvX<.m.M.T.`.I.9X8X<X8X2XsX0Xu.7 ( #Xh.4 D z w e / < % O . o O o O * z 6.{.| d.s.'.s.a.a.V.0X0XL ^.rXW.@X(.V.MXLX                      ",
"                        LXmX<.n.N.`.=XV.7XFX8X<XxX0XK N.S O 2 n v o o # p 0.< q.- : y . . . . . = W }  .d.s.s.p.a.a.I.C.jX5X_.%X@X%X^.MXLX                      ",
"                        KXmX2.n.N.N.Q.I.7XhXUXsXa.a.i.p.M.n o o X X ; O ~ y.e r.&.1 X.y .   ; o   o E ]  .| R p.s.p.p.V.sX^._.=X&X%X^.BXLX                      ",
"                    .   KXVX4.K.c.N.I.`._.hXAX5Xa.M.{.p.4 : @   X + y $ y.y.e y..Xe I r.- . ; ,   . O d ` Y R d.d.s.,Xa.S ^.;X#X&X(.V.BXLX                      ",
"                        KXZXx.E.K.K.Y.U.7XzX_.a.{.T D * . . X . . > t 1 .Xt.U b.+Xt.P r.o.# # H o . . o p ` ..| d.d.d.{.6.x.;X#X&XW.B.MXLX                      ",
"    X                 . PXvX>.J.R.L.XXR.dXrXS T p.T n > .   X X o a i d ,X .U ' .X.XI 0.OX1 # H ; X + o $ ' } | d.d. .s.'.l.&X}.}.R.V.BXLX                      ",
"      X               X KXgX$.l.L./.E.W.`.g.j.s.T s.h.@ .     X o J k Q $X ./ U ,X>X' 9.oXq # g M O ; o # w ~ U R | ..Y { j.-X}.Y.R.V.BXLX                      ",
"    X                 . KXvX:.x.J.z.D.n.h.a.s.{ {.p.: X     X . . H.( 6.$X{.'.'.>XfX;X) 7.OXk j Z.- ; o O @.:X'.R Y Y Y s.i.#X|.W.I.g.MXLX                      ",
"      X                 LXNXf.E.Y.K.=Xl._ [.p.T 4 O X @     o # O ).-._ m.j.h..X$XfXfX[.$X$Xh.b &Xb a ; & P.-X>X ./ .... .j.#X#XW.U.,.vXLX                      ",
"    X                   PXNX4.E.K.K.|.h.U {.T 4 & 9 G @   . o y $ 2.#X$X;X;X-X$X[.;X,X>X,X,XfXfXtX=.:.6 E 0. XfXy.......R 6.@Xn.%XU.;.hXLX                      ",
"      X                 KXbX5.L.n.U.=XM.T p.d.R } 0.t .   . + H - P.>X$X;X;X$X$X:X:X:X:X>XfX6X_.aXuXqXp Q { ].>X.XY Y Y ` 6.|.Y.|.W.,.mXLX                      ",
"                    X   KXmX5.E.Q.U.W.m.p.s.d.d. .` 1 . . . O :.9 0.$X>XdXdX;X$X+X:X+XuX;Xs 0 g 9 X.qX~ e ' '..X{.Y Y Y &.9.wX X|.`.f.kXLX                      ",
"                      X PXvXZ.U.Q.z.T.N.i.p.R R ` ~ < o , . o q.&.0.;X) b D h.;X+Xb.OXuXd s dXlXtXn OXOX< ~ '.'.+X^ ^ :.pXq.*X X}.W.3.kXLX                      ",
"                        JXbXS.Q.z.U.T.j.[ p.R R U W & 2 t . o M OX].n ) rXrXg.&X.X' .X+X-.tXfX%XtXR.b.P.$ q t.{ { ^ :.aX9X!.&X|.}.Q.4.mXLX    X                 ",
"                        KXNXG.W.U.J.T.Y.-.[ ` T R ` $ Z y . o 9  X` h.;XdXfXfX;X+X` ].:X>XuX|.J.J.r.P.1.o - 7.}  XW 1.eX4XC.eXM.}.T.f.mXLX                      ",
"                        JXNXF.E.J.E.U.J.B.-.Q R Y / < -.* . o a 7.].j.#X#X;X;X;X].1 ' ].-XoX(.A.1.X.p N O o ' ].:Xb.! :.4X>.%X@X@XW.B.kXLX                      ",
"                        JXNXf.n.x.v.P.(.!.B.( U ` U f Q - > o 5 0.] 7.'.}.T.b.P.6.W 9.XX6XeXpXiXiXpX4XH o % ~ t..Xb.p N b 5.*XT.#X(.B.hXLX  X                   ",
"                    X   JXMX3.z.m.0.v.A.r C &.Q / Q ' f d 8 O # o.P E ) W.eXyXyXlXlXlXDXSXGXGXGXDXMXiXy a :.^ t.].].3 w ! 9.&X|.}.W.f.hXLX  X                   ",
"                        PXbX>.l.M.M.Q.2.w i w 3 E ~ c W ~ ! ; $ w :.lXDXDXSXHXHXHXSXHXSXDXCXCXnXcXgX5XN X.o.^ t.t.y.W 1 c 6.&X}.m.T.f.hXLX  X                   ",
"                        LXvX*.l.M.M.`.2.q p N %.k.9.c &.8.o.:.o.6 r.kXiXvXCXVXnXsX9X0X0X7X5X0Xw.C.C.X.:.o.r.^  ./ ].0.w c l.#XM.M.U.B.kXLX  X                   ",
"                        KXbX>.Q.m.@XT.k.z x p C v n ( #.0 2 ! o.p H iX5X3X7X5X9X9X9XiXnXiXaXcXgXpX7XX.E 0.0.Q y.{.+X0.! !  X|.b.c.U.>.gXLX                      ",
"                        KXNX>.n.N.M.}.k.O.C 6 6 v S ( D o g &.E o.X.H 5XnXUXIXFXUXIXFXUXZXSXZXZXZX!.o.0.0.0.' 7.t..X].~ 0.J.#Xm.c.U.>.hXLX  X                   ",
"                        PXNX3.z.U.XXXX/.<.i i N h 7 v D A N W ! ^ o.o.iXGXUXUXFXFXGXIXUXGXGXSXDX4X@.E ~ o.p E 7.t..X+X0.b.b. Xm.v.n.*.hXLX                      ",
"                    X   JXbX*.x.U.J.XXG.O.Z ;.G > h S D =.c c C c :.o.w.pXGXGXGXGXCXGXSXbXaXpXqX5.i p ~ p 1 e 6.{. .] ].-X6.}.m.M.n.@.jXLX                      ",
"                        JXNX3.D.L.R.R.U.c n B + > h h h ! o.q 6 W 0.9.%.G 4XlXiXqX4Xr.r.:.o.N :.c ^ I ^ & - w b.[.'.'.;X-X[. Xv.m.v.*.gXLX                      ",
"                        PXNX5.Y.R.R.%XQ.w %.5 o @ @ , > ! &.q k &.0.W %.@.G N N p p o.qXaXyXP.^ ^ I p e n w ) .X>X$X.X$X[.j. Xv.M.U.,.gXLX                      ",
"                  X     JXhXJ g.D.R.M.h.q q.t .   X X X H Z 9 o.o.p N o.i r N p o./ y.y.+X+X+X&.p c U W ) &.0.7.y.y.t.U Q 7.[.l.m.T.3.hXLX              X       ",
"                        PXvXS 9.Y.n.m.M.! 4.m # . . . . M t 1 p a 6 a i a u 6 p ^ I ] ]  .t. ./ Q 0.0.j.OXuX.X0.U / ' [ [ [ [.[.[.T.>.gXLX                      ",
"                        LXgX$.U.n.z.@Xm.6.K.d o.! i $ 5 m 5 - a t 1 8 8 6 6 p p / / Y / / /  .] t.].+X+X>X$X+X].7.P ] t.7.7.m.[.[.U.$.gXKX                      ",
"    X           X       LXvX*.n.h.z.M.N.s e 3 6. X&.6 F 9 8 5 y 5 2 6 6 t a a e y.] t.t.t./ / t. .t.{ '.j.].j.].7.] P 6.7.'  Xc.&X@X3.hXLX                      ",
"      X           X     KXmX<.z.l.N.N.N.-.6.l.h.-.l.r.~.k.g.S.F.Z.G.x.x.e.1.D.9.' 0.].].7.'.6.j.7.b.m.b.v.Y. XK.OXOXOXOXK.(.U.E.Y.Y.>.lXLX                      ",
"    X                   KXNX5.U.I.( N.-.4 ( &Xn d E.qX! =Xg.4 $.W.@X|.(.4.a W }.p q b. X#XXX%X_ J. Xc J.oXx Z.! 2.+.x.j %.x.0 2.|.W.f.gXLX                      ",
"      X                 LXNX5.R.2.8 -.-.j a 2.s Z (.5.- A.-.g b v.K.Y.E.u <.b -.j 2 9.Y.N._._.0 %.XXD E.=XN ).$.9 A.<.: ^.S 0 #.tX-XF.gXLX                      ",
"    X                   PXvX<.I.%.6 ( k.r 9 2.D s D.V * >.<.j j l.m.P./.x ( w 2.8 8 2.9.z.n.*.: b I.9 2./.8 e.G.2 ).<.2 S.).v -.=X&XV.gXLX                      ",
"      X                 JXvX*.z.2.4 N.-.w :.x.n A +.Z A ( 2.j +.Y.b.K.L.<.9 n =.b ! ( K.M.M.! %.A A.x k D.! 5.G.<._.#.z S (.A W.@X|.F.gXLX                      ",
"                        JXNX3.U.J.n _ U.R.4.J.U.x.^.q./.5.x.B.2.9.9.+.%.1.%.#.%.D.8.1.L.n.c.=.v./.2.Z.H.G.^.~.F.F.4.Z.f.wX*.*.=X}.W.G.hXLX                      ",
"      X               X JXbX3.U.R.&.n D.G.9 <.Z B @.9 V t M t 9 A j r 5 g 7 V l G.! < C E.6.2 N 5.7 V 7 7 g B 5 5 2 F r ).O.I._.|.XXB.7XHX.                     ",
"    X                   KXbX3.(.L.k.A R.!.z S g H H J M a t H t r #.G t Z x M B ).$.5 y 1.E.k @.H.7 J M h w.M B G 5 F V ).V B.).W.Y.>.5XAX                      ",
"      X                 PXbXg._.R.3.b Z.G.8 7 0 M t q.g a * g M - ;.J 0 <.G - F -.( a r ! %.s #.r.y ,.M t G G h V.t - ;.eXB 5 g. X=.5.kXLX    X                 ",
"                        PXbX3.*X*.0 @.V.F.g - > h t q.g l ; 8 g - *.$.* 5.:.* q.j n r t 8 8 8 @.q.t G M > h ,.= q.M - ).).F.m S.=.l.!.kXLX                      ",
"                        PXbXf._.G.A V.F.^.z = 7 t g V.t M 7 D l * J $.: @.:.7 !.z O.r t l N r ,.5.7 @.a 7 M J - 3.A 5 eXeX).A 1.v.x.!.BXLX  X                   ",
"    X   .             X PXNXg.).g.0 3.!.B.m M 7 t l ,.g B x g B = M ,.M z :.t ~./.1.r y ;.~.r ,.B t J m u 5.G l H.O.9 6XwXZ 2 ! b.oX^.kXLX                      ",
"      X                 JXCXC.I.2.v Z S.Z.r X.y m N r M B @.z M y y G g u @.6 e.U.( 5 7 x.4X9 7 g g 7 G 9 4XV B eXV 7 ).R.b ! 9.|.*X).BXLX                      ",
"    X                 X JXbXf.Q.R.z.z D.H.Z 5.F C q.i 5.X.4.1.F K B M 8 b #.x Z.n.A 0 $.(.v.n k *.V m 1.j H.X.Z wX>.m R.).k ( K. X|.F.kXLX                      ",
"                        KXMXV.`.Q.U.s I.G.1.G.(.G.E.%XE.E.J.J.XXW.R.U.U.U.z.W.U.n.n.U.z.c.#XT.|.U.`.%X=X=X%X@X|.W.R./.R.oXb +.|.n.T.S.gXLX                      ",
"                        LXBXV.(.E.x.s G.J 0 ).D.R.U.M.@X&X&X XE.Y.W.W.U.T.W.E.E.W.Y.M.T.}.m.[.T.W.%X(.W.@X#X#X=X&XY.D.E.(.( b W.n.Q.F.kXLX                      ",
"                        JXNXV._.%X&.s (.z - v R.G.+.h.T.&.-.L.%.A XXE./.x.! L.L.+.9.oX=.9.&XY.W.=.2.wX8.! XXtX+.oXE.-.A.*XD.8 (.Y.%X^.mXLX                      ",
"              X     .   JXBXV.=X(.n ( ^.3.= 0 x.(.%.-.k.-.( 9.! ( +.oXR.%.=.1.=.k.! l.( n v.&Xv.+.$./.+.e.e.A.%.( 2.&.(.R.D.8 z.%XeX).mXLX  X X     .           ",
"                        JXNXF.eX(.8 Q.#.0 0 2 g.U.$.k.U.( ( R.&.! N.n.W.-.W z.9.d ( |._ ( T.c.@X&.8.oXL.X.~.qX:.1.x././.*XZ 0 2.&XeX).vXLXX   X                 ",
"            X X X   X   JXNXF.eX( ( (.I.8 - S.6X).=XQ.`.`.*X_.R.J.(.Q.U.`.(.Q.R.x.Q.W.Y.|.T.}.&X*XoX).wX/.eXeX:.Z.yXwXoXrX<.0 _.=XwX^.mXPXX                     ",
"            X X X       KXVXF.rXA f.eX^.*.,.^.*.3.B.f.S.*.<.f.J :.$.4.V.>.5.#.*.3.F S $.#.( <.4.+.S.#.R.H.e.N 5.;.F ;.q.G m f.rX*X=X^.VXLXX X X                 ",
"  .           X     .   LXNXI.=XA ).rXF.B J J B V V *.g.J J *.B @.J B V V V B m G v m Z Z x ,.F.7 x l 3.v H.t @.;.g y M B 7 V.rX=XeX~.vXLX                      ",
"              X         JXMXI.=XJ S V.^.K B S K K B f.V.K J K S ,.5.B B G J B V J Z 3.>.@.;.).4X5 - H H < 5X5 H J L y y K 7 6X6X=X`.^.MXLX                      ",
".                       HXzX^.rXS g v S.v S S S J 3.>.v S *.Z *.v v V Z.v *.J z z j v A I._.wX2.7 t M t 5 @.5 5 a t G G G 8 J eXrXrX6XMXLX.           X         ",
"X   X                 . JXAXI.eXW.n N.Q.S.g.Q.Q.Q.R.T.Q.U.Q.Q.`.Q.n.n.U.J.z.U.U.x.g.z.x.T.U.Y.-.+.L.x X.q.;.#.#.X.X.>.D.4.S 2.eXdX7X6XMXLX            X         ",
"                X       HXAXV.Q.@X=X`.N.Q.`.N.Q.U.@X@XT.T.U.n.Q.T.n.z.z.T.n.v.U.n.n.T.T.Y.n.@X|.x.8.x.P.qXwXoX*X*X=X_.(.oXrXtXtX6XdX6XbXLX                      ",
"                        PXFX6X).=X%X%XN.`.N.N.N.k.n.M.Q.Q.Q.`.M.c.n.z.n.z.M.z.n.W.n.W.`.W.W.@X=.v.-.9.R.L.D.R.Q.eX_.=X_.eXyXyXjXjXjX9XCXLX                      ",
"                      X JXAX7X)._.).g.I.^.V.f.I.I.F.S.I.).S.f.S.f.F.S.$.g.f.B.V.f.I.f.3.G.V.>.*.O.5.3.3.3.F.^.^.;.I.C.^.V.^.7X6X6XjXiXCXKX            X X       ",
"    X                   IXJXUXBXUXbXgXbXcXNXvXhXbXcXvXhXvXvXhXhXvXvXbXgXcXbXbXhXvXcXgXcXbXvXvXAXgXnXCXCXVXNXBXvXgXbXbXNXnXbXbXUXDXDXAXIXKXX     X               ",
"                    X   IXIXHXHXJXJXPXJXPXJXHXPXPXPXLXLXJXLXJXJXLXKXKXLXPXPXJXLXJXLXKXPXPXLXKXJXPXPXPXJXJXJXHXJXPXPXJXPXPXPXJXPXHXHXKXKXIXX           X X       "
};
