/* XPM */
static char *a060381e466540c2801cc4f6a34cecf4fYuKhCCLtdOdPUuS[] = {
/* columns rows colors chars-per-pixel */
"64 64 256 2 ",
"   c black",
".  c #010101",
"X  c #020202",
"o  c gray1",
"O  c #040404",
"+  c gray2",
"@  c #060606",
"#  c #070707",
"$  c gray3",
"%  c #090909",
"&  c gray4",
"*  c #0B0B0B",
"=  c #0C0C0C",
"-  c gray5",
";  c #0E0E0E",
":  c gray6",
">  c #101010",
",  c #111111",
"<  c gray7",
"1  c #131313",
"2  c gray8",
"3  c #151515",
"4  c #161616",
"5  c gray9",
"6  c #181818",
"7  c #191919",
"8  c gray10",
"9  c #1B1B1B",
"0  c gray11",
"q  c #1D1D1D",
"w  c #1E1E1E",
"e  c gray12",
"r  c #202020",
"t  c gray13",
"y  c #222222",
"u  c #232323",
"i  c gray14",
"p  c #252525",
"a  c gray15",
"s  c #272727",
"d  c #282828",
"f  c gray16",
"g  c #2A2A2A",
"h  c gray17",
"j  c #2C2C2C",
"k  c #2D2D2D",
"l  c gray18",
"z  c #2F2F2F",
"x  c gray19",
"c  c #313131",
"v  c #323232",
"b  c gray20",
"n  c #343434",
"m  c #353535",
"M  c gray21",
"N  c #373737",
"B  c gray22",
"V  c #393939",
"C  c #3A3A3A",
"Z  c gray23",
"A  c #3C3C3C",
"S  c gray24",
"D  c #3E3E3E",
"F  c #3F3F3F",
"G  c gray25",
"H  c #414141",
"J  c gray26",
"K  c #434343",
"L  c #444444",
"P  c gray27",
"I  c #464646",
"U  c gray28",
"Y  c #484848",
"T  c #494949",
"R  c gray29",
"E  c #4B4B4B",
"W  c #4C4C4C",
"Q  c gray30",
"!  c #4E4E4E",
"~  c gray31",
"^  c #505050",
"/  c #515151",
"(  c gray32",
")  c #535353",
"_  c gray33",
"`  c #555555",
"'  c #565656",
"]  c gray34",
"[  c #585858",
"{  c gray35",
"}  c #5A5A5A",
"|  c #5B5B5B",
" . c gray36",
".. c #5D5D5D",
"X. c gray37",
"o. c #5F5F5F",
"O. c #606060",
"+. c gray38",
"@. c #626262",
"#. c gray39",
"$. c #646464",
"%. c #656565",
"&. c gray40",
"*. c #676767",
"=. c #686868",
"-. c DimGray",
";. c #6A6A6A",
":. c gray42",
">. c #6C6C6C",
",. c #6D6D6D",
"<. c gray43",
"1. c #6F6F6F",
"2. c gray44",
"3. c #717171",
"4. c #727272",
"5. c gray45",
"6. c #747474",
"7. c gray46",
"8. c #767676",
"9. c #777777",
"0. c gray47",
"q. c #797979",
"w. c gray48",
"e. c #7B7B7B",
"r. c #7C7C7C",
"t. c gray49",
"y. c #7E7E7E",
"u. c gray50",
"i. c #808080",
"p. c #818181",
"a. c gray51",
"s. c #838383",
"d. c #848484",
"f. c gray52",
"g. c #868686",
"h. c gray53",
"j. c #888888",
"k. c #898989",
"l. c gray54",
"z. c #8B8B8B",
"x. c gray55",
"c. c #8D8D8D",
"v. c #8E8E8E",
"b. c gray56",
"n. c #909090",
"m. c gray57",
"M. c #929292",
"N. c #939393",
"B. c gray58",
"V. c #959595",
"C. c gray59",
"Z. c #979797",
"A. c #989898",
"S. c gray60",
"D. c #9A9A9A",
"F. c #9B9B9B",
"G. c gray61",
"H. c #9D9D9D",
"J. c gray62",
"K. c #9F9F9F",
"L. c #A0A0A0",
"P. c gray63",
"I. c #A2A2A2",
"U. c gray64",
"Y. c #A4A4A4",
"T. c #A5A5A5",
"R. c gray65",
"E. c #A7A7A7",
"W. c gray66",
"Q. c #A9A9A9",
"!. c #AAAAAA",
"~. c gray67",
"^. c #ACACAC",
"/. c gray68",
"(. c #AEAEAE",
"). c #AFAFAF",
"_. c gray69",
"`. c #B1B1B1",
"'. c #B2B2B2",
"]. c gray70",
"[. c #B4B4B4",
"{. c gray71",
"}. c #B6B6B6",
"|. c #B7B7B7",
" X c gray72",
".X c #B9B9B9",
"XX c gray73",
"oX c #BBBBBB",
"OX c #BCBCBC",
"+X c gray74",
"@X c gray",
"#X c gray75",
"$X c #C0C0C0",
"%X c #C1C1C1",
"&X c gray76",
"*X c #C3C3C3",
"=X c gray77",
"-X c #C5C5C5",
";X c #C6C6C6",
":X c gray78",
">X c #C8C8C8",
",X c gray79",
"<X c #CACACA",
"1X c #CBCBCB",
"2X c gray80",
"3X c #CDCDCD",
"4X c #CECECE",
"5X c gray81",
"6X c #D0D0D0",
"7X c gray82",
"8X c #D2D2D2",
"9X c LightGray",
"0X c gray83",
"qX c #D5D5D5",
"wX c gray84",
"eX c #D7D7D7",
"rX c #D8D8D8",
"tX c gray85",
"yX c #DADADA",
"uX c gray86",
"iX c gainsboro",
"pX c #DDDDDD",
"aX c gray87",
"sX c #DFDFDF",
"dX c gray88",
"fX c #E1E1E1",
"gX c #E2E2E2",
"hX c gray89",
"jX c #E4E4E4",
"kX c gray90",
"lX c #E6E6E6",
"zX c #E7E7E7",
"xX c gray91",
"cX c #E9E9E9",
"vX c #EAEAEA",
"bX c gray92",
"nX c #ECECEC",
"mX c gray93",
"MX c #EEEEEE",
"NX c #EFEFEF",
"BX c gray94",
"VX c #F1F1F1",
"CX c gray95",
"ZX c #F3F3F3",
"AX c #F4F4F4",
"SX c gray96",
"DX c #F6F6F6",
"FX c gray97",
"GX c #F8F8F8",
"HX c #F9F9F9",
"JX c gray98",
"KX c #FBFBFB",
"LX c gray99",
"PX c #FDFDFD",
"IX c #FEFEFE",
"UX c white",
/* pixels */
"zXlXlXlXkXkXzXvXvXpXmXVXzXbXxXkXlXxXkXdXdXkXxXlXzXlXjXfXMXmXiXzXcXzXkXlXzXzXlXlXcXtXxXnXjXcXlXgXxXbXxXdXdXcXnXcXzXcXcXgXbXxXyXcX",
"vXcXcXcXxXxXvXmXbXaXnXMXzXnXvXvXvXnXvXkXkXvXnXvXnXvXvXlXBXMXsXvXMXbXcXcXcXvXvXbXxXyXxXbXkXbXxXlXxXmXnXlXzXmXMXvXcXvXbXkXnXcXyXxX",
"yXuXyXrXrXtXiXpXgXwXdXsXyXaXuXpXiXpXiXyXyXiXpXiXyXtXpXyXsXsX0XsXdXaXyXrXtXuXpXpXaX7XiXpXtXaXyXuXrXpXsXiXiXdXaXtXyXtXaXuXdXaX8XiX",
"9XqX0X7X6X9XwXwXsXwXiXtXqXqX3X7XqXwXwXwXwXwXwXqX3X1X0X0XeXtX9XpXtXeX9X4X5X0XwXwXiX8XrXqX9XqX4X8X8XeXtXeXeXtXrX9X4X2XqXwXyXuX8XyX",
"CXSXAXMXMXCXDXSXFXCXGXAXZXBXjXvXZXZXAXSXSXAXZXZXnXlXCXZXZXFXAXKXDXDXVXbXnXCXSXZXFXBXZXNXBXVXzXMXAXDXFXSXDXFXFXSXcXhXNXCXZXFXVXSX",
"kXcXzXfXdXlXvXcXkXkXvXzXbXzXrXgXzXkXlXxXxXlXkXzXjXyXlXxXjXcXlXxXxXcXjXpXaXkXxXkXzXjXlXgXxXzXuXkXcXcXcXxXxXcXvXvXgXrXkXxXjXxXjXlX",
"xXnXvXhXgXcXmXbXvXbXmXcXBXmXaXbXbXxXxXbXbXxXxXbXnXiXcXnXzXmXvXxXvXnXxXfXfXcXnXzXvXvXnXxXBXMXsXbXvXvXbXbXnXbXbXnXvXpXbXMXzXnXbXvX",
"kXvXzXsXaXlXvXxXcXvXcXgXcXlXeXlXcXkXkXxXxXkXkXcXcXeXjXcXlXMXbXlXzXvXlXsXdXxXcXjXzXcXcXhXnXxXeXjXlXlXzXvXvXxXzXzXkXwXkXcXfXcXvXxX",
"8X5X5X9X9X6X7X0X6X9XqX7XtXwX:XqX8X9X7X3X3X7X8X7XwX3X9X7X9XwX5XqXwX8X6X9X9X7X9XeX3X1X9X6X7XeX6X9X7XwXqX4X5XwXrX0XqX4XqX0X0XwX5XwX",
"bXxXxXnXnXvXvXmXhXfXcXcXNXBXlXBXbXnXvXlXkXcXbXvXmXlXmXnXmXMXlXbXNXbXvXnXmXbXnXBXlXhXnXcXvXNXcXmXxXnXbXkXkXnXMXvXBXcXNXbXcXxXdXkX",
"mXbXvXnXmXbXnXMXcXdXnXmXbXMXcXbXmXMXbXlXlXvXmXnXmXzXNXNXNXNXjXxXnXvXcXbXbXvXbXmXzXhXnXvXbXBXcXMXxXnXbXlXlXnXmXvXmXlXmXvXcXvXgXxX",
"zXlXkXkXlXlXlXxXcXuXcXbXgXzXkXjXxXxXkXdXdXjXzXlXxXfXxXzXxXxXaXgXkXjXjXkXkXkXkXlXhXpXlXkXlXcXgXxXjXzXlXgXgXlXzXkXlXdXxXlXlXzXsXlX",
"bXbXcXxXzXcXvXvXcXuXvXmXlXnXmXnXbXnXcXkXjXxXbXvXmXkXvXxXcXbXhXcXbXbXvXcXcXbXnXnXxXgXcXcXvXbXhXbXxXvXcXzXzXcXcXxXMXzXNXnXvXvXdXkX",
"pXaXiXtXrXuXpXiXpX9XiXiXrXuXeXyXpXsXpXtXtXiXpXiXaXwXuXyXuXsXrXsXuXuXyXeXeXuXpXiXaXwXpXpXpXiX0XiXuXuXuXyXyXyXyXtXyXqXpXpXpXaXqXuX",
"tXyXrX9X8XwXrXwXaXtXuXqXwX0X>X8XrXyXyXeXeXtXtXeXwX5XwXwXtXiXqXuXqXwX9X4X5X0XeXwXiX9XyXyXtXwX4XeXrXrXrXrXrXeXwXwX4X,XqXeXyXpXwXiX",
"VXCXBXvXvXMXBXMXZXAXZXnXZXBXhXVXBXZXZXVXVXCXCXNXbXkXNXVXAXFXNXAXZXAXBXvXvXVXSXAXFXnXZXZXCXMXkXNXZXZXZXAXZXVXBXVXvXlXBXVXZXAXnXCX",
"zXvXcXkXkXcXbXxXvXvXvXzXAXCXsXvXcXxXzXzXlXlXcXnXvXyXxXbXjXnXmXbXxXMXmXjXfXxXbXcXdXzXvXjXmXnXiXxXxXxXcXvXbXvXvXvXvXuXbXNXlXvXzXgX",
"kXzXzXhXhXzXcXzXvXcXcXkXMXbXtXgXlXlXkXlXlXlXlXzXvXuXzXvXjXbXvXcXkXvXcXfXsXkXxXlXjXzXcXgXcXvXiXzXzXzXxXcXcXcXcXcXzXtXlXcXjXvXcXzX",
"lXxXzXjXkXxXcXxXbXzXvXlXnXvXuXhXzXlXkXlXxXcXzXjXbXsXcXvXzXnXxXcXlXbXvXjXhXzXcXlXxXxXvXhXxXvXsXxXxXcXcXcXcXvXvXvXvXpXlXzXjXbXcXnX",
"6X6X5X4X5X6X8X8X7X2X8X7XqXeX2X8X8X6X3X2X6X9X7X2X0X1X8X8X7X0X3X7X8XqX0X7X6X9X0X8X5X3X9X4X6X9X1X6X7X9X8X6X7X9X9X7XeX3X8X6X5X8X2X6X",
"vXxXzXxXxXxXcXbXzXsXcXbXbXNXcXmXmXbXkXfXjXbXbXlXvXjXvXxXbXbXfXxXbXnXbXcXvXnXmXbXgXaXvXcXxXnXkXzXxXbXvXlXlXvXvXxXMXxXmXvXbXvXaXjX",
"mXbXvXbXbXvXnXNXbXdXnXmXxXmXcXbXBXNXcXgXjXnXMXvXbXxXnXcXNXMXfXvXmXnXvXcXbXmXmXmXhXpXnXmXcXNXvXcXvXMXnXzXlXbXnXcXbXvXMXnXCXNXsXzX",
"cXlXkXzXxXlXzXbXcXuXcXvXfXlXkXkXxXbXxXdXsXlXcXkXlXlXxXjXmXbXiXzXvXlXhXhXlXxXcXcXhXtXxXcXhXvXcXkXlXbXcXgXgXxXcXjXhXkXxXkXMXbXyXkX",
"nXxXzXvXvXxXcXMXnXaXnXMXkXvXbXvXxXMXmXkXhXxXvXlXxXvXbXzXCXNXaXnXNXvXlXlXcXbXmXMXvXpXnXnXhXnXmXcXvXNXmXkXkXbXmXxXzXcXvXkXNXbXuXzX",
"yXaXaXuXyXiXpXiXlXfXfXuXaXaXqXfXuXpXsXaXiXyXuXpXsXtXaXtXyXfXuXaXdXiXuXpXaXiXaXgXhXrXiXyXuXpXeXsXeXiXaXaXaXsXpXtXiXiXdXyXsXgXeXiX",
"qXeXqX6X5X9XwXeXtXwXrX8X0X8X;X6XwXrXyXtXeXwXwXrX8X4XwX0XeXpXwXyXeX0X7X4X5X8XqXrXaXqXtXeXwXwX2X8X0XeXrXwXeXtXtXwX4X<XqXqXeXpX0XqX",
"BXVXmXzXlXbXBXCXBXMXZXNXCXMXsXzXVXCXZXZXVXBXVXCXxXjXMXMXCXFXNXCXZXZXMXkXkXmXZXCXSXMXAXVXBXNXjXzXBXCXVXMXNXCXZXCXxXpXNXAXBXGXSXNX",
"vXbXxXgXfXlXvXnXcXxXmXbXMXbXpXkXbXbXbXvXcXcXcXvXlXdXxXxXvXMXlXbXmXVXnXdXdXvXNXbXvXjXbXxXxXvXdXgXcXbXbXxXxXnXnXbXxXeXvXBXlXMXMXlX",
"xXvXvXlXjXzXvXcXcXzXnXxXbXxXiXkXbXvXxXxXxXxXcXcXbXhXxXxXvXmXzXMXxXmXbXfXdXcXnXkXvXkXbXkXlXbXhXkXzXbXnXvXvXnXnXcXnXeXzXnXdXxXvXjX",
"hXzXxXlXjXlXzXkXbXxXbXlXcXlXyXjXvXxXkXkXlXzXzXlXbXfXlXzXcXnXlXBXkXcXxXhXhXxXcXjXcXkXvXjXjXvXhXjXkXxXcXxXxXvXcXlXnXyXlXcXhXzXzXxX",
"2X5X6X3X2X4X5X3X5X3X8X5X9X8X;X6X8X5X2X2X3X5X5X4X9X>X4X5X7X7X,X8X7X7X6X5X5X6X7X8X2X<X8X2X4XqX2X2X3X5X4X2X2X5X6X4X0X>X5X7X8X8X1X9X",
"bXMXMXvXcXnXMXmXfXfXcXvXVXVXlXBXNXnXcXxXvXnXnXbXBXkXnXMXmXcXsXlXNXbXcXbXbXvXnXVXdXgXmXvXMXDXnXbXvXbXcXkXkXcXnXnXMXzXbXbXNXbXaXcX",
"vXcXcXcXxXxXvXmXvXiXbXMXkXcXzXjXzXnXvXhXhXbXMXcXvXcXxXjXVXBXsXbXnXcXlXlXzXxXxXcXcXyXcXmXkXvXxXjXcXBXBXzXjXvXMXmXkXzXxXhXnXxXtXxX",
"zXzXzXlXkXkXxXvXbXaXnXMXzXbXcXxXlXvXxXfXfXxXbXzXzXkXkXgXnXbXiXzXnXvXcXvXbXvXcXxXvXuXcXnXlXnXcXzXhXvXbXhXdXlXcXxXxXcXvXkXnXcXuXxX",
"xXcXcXzXlXzXvXnXzXiXzXxXjXxXkXzXzXvXxXgXgXzXcXlXvXlXxXlXmXmXdXcXzXzXzXzXxXxXlXjXlXyXjXlXgXzXjXkXhXvXnXzXkXcXbXcXkXhXzXhXxXlXyXjX",
"uXpXiXtXrXuXaXsXjXuXhXfXsXgXpXgXpXsXpXtXrXiXpXuXaXrXaXpXfXhXyXfXgXgXdXaXsXfXfXsXgXrXsXaXpXfXyXsXtXsXfXsXaXdXfXsXaXyXfXdXgXgXtXfX",
"6X8X7X2X1X6X9X9XuXqXtXqXqXqX2X0XwXeXwX9X9XqXqX0X6X>X8X9X0XrX9XeXeXeX8X3X4X0XwX0XrX8XqX7X9X0X<X7X6X0XwXqXqXeXwXqX6X,X0XqXqXrX9XrX",
"CXDXAXmXnXZXDXSXDXAXSXNXCXBXhXMXDXDXSXAXAXSXSXSXVXlXZXDXZXGXDXGXAXAXmXkXlXNXZXVXAXBXVXmXVXBXhXmXZXSXDXFXGXGXFXDXnXgXNXCXNXAXVXZX",
"kXcXzXsXaXlXvXxXnXnXmXzXmXcXyXlXjXjXjXkXkXkXkXkXkXrXzXvXhXcXxXxXnXmXxXsXdXcXnXcXcXcXcXkXmXvXuXzXxXzXzXxXcXcXxXzXlXtXxXnXkXbXvXcX",
"zXnXvXfXfXcXmXbXxXbXnXlXmXcXrXlXvXcXcXbXbXbXbXnXbXpXmXNXlXbXbXvXvXmXcXfXgXvXnXzXkXzXxXjXMXnXuXxXnXbXvXbXnXbXvXvXzXtXxXnXhXcXxXlX",
"zXlXkXjXhXkXxXbXvXjXnXvXxXzXpXgXvXzXkXzXzXkXzXvXxXrXkXcXjXbXnXvXvXxXkXhXhXjXzXcXbXhXzXkXkXlXaXjXcXzXzXvXvXzXlXcXlXqXkXnXkXzXlXxX",
"9X9X9X8X7X8XqXeX9X3XwXwXeXrX5XqX0X9X8X6X6X8X9X0XrX3XqXqX8XqX6X8XeXwX9X8X8X9XqXwX0X2X8X7X9XqX3X9X7X8X8X8X9XqXwXeXeX<XqXrX0X9X3X8X",
"vXbXbXvXcXvXbXmXzXgXbXnXmXNXxXMXxXbXcXhXhXcXbXxXMXvXmXvXmXbXsXzXmXnXbXvXvXbXnXmXkXsXxXcXnXNXzXmXzXbXcXjXkXnXNXnXmXxXmXbXmXcXpXxX",
"nXmXMXmXnXnXmXMXvXjXnXnXmXNXzXMXxXMXnXhXhXnXMXxXbXnXmXcXCXNXsXnXmXnXnXnXnXmXmXMXlXdXcXbXMXVXcXNXnXCXMXjXjXmXBXvXvXbXmXxXBXnXpXnX",
"kXlXzXlXkXjXkXlXjXaXlXkXkXxXfXzXgXxXlXpXpXlXxXgXfXhXkXfXbXcXtXlXlXkXkXkXkXlXzXxXfXuXhXjXzXcXdXkXlXnXcXsXaXzXcXgXhXkXzXfXcXzXrXkX",
"vXbXbXvXxXxXcXbXvXjXbXbXbXMXxXNXcXmXnXlXlXnXmXcXvXlXvXxXmXnXfXcXnXbXvXvXbXnXmXNXvXhXvXvXbXnXhXxXxXnXnXzXzXmXMXvXbXvXNXvXmXmXgXcX",
"iXiXuXtXeXrXyXiXpXwXiXyXyXuX0XuXuXuXuXuXuXuXuXuXaX9XiXiXtXpXeXtXuXyXrXeXrXyXpXaXsXeXiXyXuXiX9XtXtXyXuXiXiXiXuXyXtX9XaXiXrXaXtXtX",
"yXyXrXwX0XqXeXyXpXqXyXqX9X9X<X7XtXeXrXuXuXrXeXtXiX2XrXuX0XuXuXtXqX0X8X6X7X0XeXtXaXqXyXrXrXyX7XeXtXeXtXpXiXwX9X9X6X;XwXrX7XuXuXwX",
"NXZXNXzXzXBXAXVXCXZXAXMXFXCXsXbXSXCXNXNXBXBXVXCXmXsXBXDXBXFXDXCXCXSXVXxXxXVXSXCXNXVXCXmXDXZXhXCXVXVXCXZXAXZXZXZXBXsXNXFXBXAXVXBX",
"xXbXxXfXfXcXnXcXxXcXbXzXNXbXuXlXvXxXlXlXzXzXzXzXxXyXcXmXzXnXcXzXvXmXvXgXgXcXnXxXhXkXzXgXvXzXtXlXxXxXcXvXbXvXvXvXnXiXcXMXxXcXkXkX",
"zXvXcXhXjXvXnXcXcXzXbXxXmXbXpXlXbXvXcXxXcXvXcXxXcXpXcXvXzXnXzXxXcXnXvXhXhXxXvXlXlXkXcXlXbXcXpXxXxXcXcXcXcXvXvXvXzXtXkXvXxXbXzXbX",
"jXzXlXhXhXzXxXlXcXjXcXzXcXcXpXhXxXcXzXlXlXcXxXkXlXpXlXzXxXnXlXbXlXcXxXhXhXlXlXjXlXgXcXzXcXvXdXxXzXcXcXzXzXcXvXxXkXtXgXlXzXcXhXbX",
"6X7X7X5X6X8X8X7X0X1X0X0X0XwX5X8X6X7X6X2X3X7X7X3X7X2X7X6X0XwX4XqX9X0X9X7X7X8X8X7X5X:X7X7X6X8X1X6X8XqX0X6X6X0XqX8XrX5X9X8X9X6X;X5X",
"vXvXvXcXcXbXbXbXvXsXvXmXbXVXMXNXvXnXvXjXkXbXnXzXbXcXbXzXmXnXsXcXnXnXnXbXbXnXmXmXzXpXcXbXzXvXzXxXvXmXnXlXlXbXnXxXBXvXnXvXNXbXpXcX",
"vXcXxXxXxXxXvXbXcXuXxXbXlXmXbXvXnXMXvXgXhXbXmXxXcXcXvXlXMXvXuXlXvXcXxXxXcXvXbXmXxXuXvXmXlXbXcXxXxXnXbXjXhXcXbXlXzXkXzXzXBXbXiXbX",
"vXcXzXzXxXxXvXnXmXpXcXbXgXxXlXhXcXbXlXaXsXxXbXlXzXcXvXzXVXMXpXvXcXzXlXzXxXcXbXmXzXtXcXnXjXvXcXzXvXMXnXkXjXbXnXzXcXxXcXlXNXxXwXkX",
"cXxXvXMXmXcXcXnXBXpXvXMXzXbXnXBXcXnXbXkXgXlXvXbXmXcXzXbXnXvXzXzXmXzXlXmXmXxXcXNXcXfXxXcXnXMXzXMXcXbXnXcXcXbXvXzXbXbXMXzXbXnXsXjX",
"uXpXpXpXiXiXpXaXlXrXdXdXuXyXwXiXyXsXdXiXyXiXpXiXaXyXyXsXfXdXpXpXsXuXyXiXiXuXpXfXdXeXpXiXaXsXeXpXiXsXsXpXpXsXaXuXyXqXsXpXaXhXuXiX",
"7XwXqX5X4X0XeX0XiXwXtXqXqX6X=X5X0XtXuXyXtXrXeX0X6X4X5XqXtXrXwXwXqXwX8X3X4X9XeXeXyX8XeX0X9X0X1X6X0XwXeXqXqXeXwX0X6X-XqXtX0XiXyXwX",
"MXSXCXxXzXVXSXVXAXSXSXNXDXBXdXmXZXSXFXGXFXDXAXCXbXxXvXBXSXAXCXCXCXDXVXzXzXVXDXZXGXVXDXVXBXVXxXbXVXAXSXZXZXSXSXCXBXsXZXHXNXFXGXNX",
"gXcXzXpXiXlXvXlXlXxXvXjXbXzXeXhXzXlXkXlXlXkXkXkXgXsXdXkXcXxXkXkXzXnXzXuXuXzXbXlXvXkXvXjXjXxXsXfXlXcXcXxXxXvXvXzXzX0XlXmXgXxXcXgX",
"xXnXnXkXjXvXmXbXmXnXVXbXmXmXdXlXBXnXcXbXnXbXbXmXmXcXxXnXNXmXnXnXnXBXmXhXhXnXNXbXnXxXMXxXcXNXzXxXvXmXMXnXmXNXNXmXbXuXcXMXxXmXbXvX",
"gXhXjXhXgXgXjXkXxXfXbXzXgXzXdXsXvXkXhXkXzXkXjXlXcXhXfXjXzXlXlXzXlXxXlXfXdXkXlXjXgXdXlXdXfXcXfXfXgXkXlXjXkXxXxXkXlXyXfXjXkXkXsXzX",
"1X<X2X5X4X1X1X4X6X-X9X8X,X7X6X<X3X>X:X1X3X<X>X,X7X1X>X1X3X3X4X6X5X5X4X3X2X3X3X3X<X,X5X>X,X8X<X<X,X3X4X2X3X6X6X3X8X,X1X1X5X3X*X6X"
};
