/* XPM */
static char *_8dd95d738824295c4a6a87b9d626da03q6aZ5ku8q3Ng5ib[] = {
/* columns rows colors chars-per-pixel */
"64 64 217 2 ",
"   c #3F1C08",
".  c #431503",
"X  c #4C1E0D",
"o  c #461906",
"O  c #521D0D",
"+  c #4C210E",
"@  c #40200B",
"#  c #52230E",
"$  c #4C2412",
"%  c #452B1C",
"&  c #532412",
"*  c #5A2615",
"=  c #562915",
"-  c #5C2B16",
";  c #552A19",
":  c #5D2C1A",
">  c #5D2518",
",  c #5C301D",
"<  c #612B17",
"1  c #692C15",
"2  c #632D1B",
"3  c #6A2E1D",
"4  c #7F2A16",
"5  c #63311D",
"6  c #69321E",
"7  c #693116",
"8  c #73361C",
"9  c #7C331D",
"0  c #543B2B",
"q  c #583C30",
"w  c #4C3525",
"e  c #632F21",
"r  c #643321",
"t  c #6C3422",
"y  c #6B3825",
"u  c #7E3621",
"i  c #7B3D25",
"p  c #5A4031",
"a  c #7E4027",
"s  c #6F4D34",
"d  c #754D38",
"f  c #7C543E",
"g  c #7E5641",
"h  c #7E5943",
"j  c #842F19",
"k  c #8E2F19",
"l  c #852D17",
"z  c #932F1B",
"x  c #982F19",
"c  c #83331D",
"v  c #8C331D",
"b  c #833A1D",
"n  c #8E381F",
"m  c #94341E",
"M  c #9A351E",
"N  c #94391F",
"B  c #9B391E",
"V  c #973417",
"C  c #843521",
"Z  c #8D3722",
"A  c #843A23",
"S  c #8C3B25",
"D  c #873D29",
"F  c #8D3E29",
"G  c #953622",
"H  c #9B3622",
"J  c #953A24",
"K  c #9C3A24",
"L  c #933D29",
"P  c #9C3D29",
"I  c #9E3728",
"U  c #A13624",
"Y  c #A13C25",
"T  c #A23D29",
"R  c #864124",
"E  c #8E4226",
"W  c #86442B",
"Q  c #8D422B",
"!  c #8B492E",
"~  c #86492D",
"^  c #9E4026",
"/  c #93422C",
"(  c #9C412B",
")  c #95492E",
"_  c #964027",
"`  c #8D4D33",
"'  c #894830",
"]  c #944530",
"[  c #9B4330",
"{  c #944C33",
"}  c #9B4E35",
"|  c #964E38",
" . c #9D4E38",
".. c #965136",
"X. c #9D5136",
"o. c #96543A",
"O. c #9D533A",
"+. c #9E593E",
"@. c #A24027",
"#. c #A3412B",
"$. c #A34E37",
"%. c #A34E3A",
"&. c #A2543B",
"*. c #A4593D",
"=. c #A6563B",
"-. c #805A45",
";. c #9D5441",
":. c #A45B42",
">. c #A95D44",
",. c #A25740",
"<. c #9E6145",
"1. c #AA6146",
"2. c #A66D50",
"3. c #A97457",
"4. c #AB775B",
"5. c #B1785D",
"6. c #A68674",
"7. c #AB8573",
"8. c #AC8B75",
"9. c #AE8C7A",
"0. c #A78874",
"q. c #B28675",
"w. c #B38A76",
"e. c #BB8C76",
"r. c #B48D7B",
"t. c #BB8D7B",
"y. c #B1877B",
"u. c #AE917E",
"i. c #B3917D",
"p. c #BC927E",
"a. c #B89176",
"s. c #C18D7C",
"d. c #C2937E",
"f. c #B58D81",
"g. c #AE9D8D",
"h. c #B69281",
"j. c #BC9482",
"k. c #BB9A86",
"l. c #B79D8D",
"z. c #BC9D8A",
"x. c #B59F91",
"c. c #AFA497",
"v. c #BBA699",
"b. c #B8A493",
"n. c #BAA28A",
"m. c #BCAFA6",
"M. c #BEB8A8",
"N. c #C39483",
"B. c #CA9685",
"V. c #C39985",
"C. c #C99B87",
"Z. c #C39C88",
"A. c #C89889",
"S. c #C5A38E",
"D. c #C7A98F",
"F. c #D5A48D",
"G. c #DEA58C",
"H. c #D3A58A",
"J. c #C3A391",
"K. c #CCA993",
"L. c #C9A998",
"P. c #D2AC97",
"I. c #DCAB94",
"U. c #DBAB94",
"Y. c #CFB499",
"T. c #DDB99A",
"R. c #E1A387",
"E. c #E4A58A",
"W. c #EBA68B",
"Q. c #E4A98E",
"!. c #ECAA8E",
"~. c #E9A284",
"^. c #F1A78C",
"/. c #F1AB8D",
"(. c #E5AD94",
"). c #EBAD94",
"_. c #E6AE9A",
"`. c #EBAF9A",
"'. c #F3AD93",
"]. c #F9AF98",
"[. c #E5B496",
"{. c #ECB196",
"}. c #E5B29A",
"|. c #ECB39A",
" X c #E6B99E",
".X c #EABA9D",
"XX c #F4B296",
"oX c #F8B196",
"OX c #F3B49C",
"+X c #FAB49A",
"@X c #F3B99D",
"#X c #FBB99F",
"$X c #C4B2A3",
"%X c #CFBAA3",
"&X c #CFB6A6",
"*X c #D3B7A2",
"=X c #D6B9A6",
"-X c #D8BCA6",
";X c #EFB7A0",
":X c #E4BEA5",
">X c #ECBBA2",
",X c #E2BFAA",
"<X c #F2B6A1",
"1X c #F8B7A1",
"2X c #F4BBA2",
"3X c #FABCA5",
"4X c #F7BEAA",
"5X c #CDC0AD",
"6X c #DEC3AD",
"7X c #D6C7B4",
"8X c #E6C2A6",
"9X c #ECC1A5",
"0X c #E3C2AC",
"qX c #EEC2A9",
"wX c #F5C3A9",
"eX c #E2C5B1",
"rX c #E5C9B3",
/* pixels */
"%XT.(.{.{.!.).OXOX).Q.+XG.R./.W.W./.XX!.E.!.).'.).W.E.OX'.E.>X,Xr.> 9 J G J Y U U U U P J J ) G.8X-XQ./.XX!.!./.oXoX].].W.Q..X X",
"n.h ~ ! { ..{ ;.| { { :.{ { X.) &.&.&.&.} .. . .) *. .{ ,.| 3.:Xt.e 9 Z L J I U U Y T I H / X.).K.h <.O.X.&...&.&.=.&.O.,.O.4.[.",
"i.r F Z l Z j 4 j C G P Z G J v J N J @.G J G J J N P P J Z >.`.t.5 A G G G H Y T T ( K G ^ X.{.V.< E J L L G L K J P J ( L o.).",
"i.2 L P G P L G G J P J P J ^ K K K I T J T H T Y K H P H P  .OXN.2 / ( N G P I K V K K P K &.#Xs.6 Z B #.G @.Y Y U @.T P _ *.~.",
"r.r F G G J P L J J K M P H P K P K P J J I H H H T H I I I X.3XA.r S G v J P G ^ B J ^ I J } XXd.3 L K N B I M U M K P K G *.!.",
"7.y } H J J H J J K K K P J J K J G K N J P I U Y I Y Y I J &.(.t.2 S N G J J J B B ^ K I P &.OXd.1 / K B J B B M Y B ^ K N *.!.",
"N.t L J I N M T U B B B K K I K B K B B I Y U Y U U @.B P G { |.t.r / K @.@.B @.Y Y Y Y H K  .OXd.t J K K K K @.M Y K G B _ *.!.",
"f.t L I B N U M B U Y B K Y Y B B K B Y J Y M Y Y K K B K ^ ) @Xj.3 / M B B @.B B B U Y H B  .+Xs.2 L K T T U U U B K K m N *.XX",
"V.t Q G P J H Y Y Y M Y G K T M K K Y K K Y I K Y B K K J K ~ (.N.r L Y U Y U U B Y Y Y I I &.`.N.< F J Y I H Y U Y J P M v X.'.",
"f.3 L G I J I Y B Y K H K G P H K I Y P K I H I Y M ^ J m / :.{.j.2 / #.K I @.M Y U T Y Y J O.OXN.e ] P J I U Y U Y P G I m A '.",
"q.t ] I K P P J K K M H P I G I H I U I I K H Y K K B K N L *.{.p.* Q I I I H T B P M I T [ X.;Xf.: Q G H I T K @.B K G m L 1.XX",
"e.3 J Y @.^ Z K J P K N J P G m I I M H P K H H U @.K K I m } #XC.= Q K P J I J Y T G P J S { @Xj.& A Z J P I H M K J I J L :.W.",
"e.3 L U M K G / ( v v G P G G K N H M J ( K G B V N K K U ^ &.!.d.6 _ J P K T H Y I P P P ( >.Q.f.+ C L J H I H U K P K J J { +X",
"r.: ! _ L ) / D C 9 S c F D ] F S / F S / Q / ) E / E S L S o..Xp.5 A n S ) F L L ) ] D Q S O.}.r.+ u J K I H K Y K G ( H J ,.'.",
"c.q * < < : : : + X & & r & < > = 5 = $ & + = > 5 - < 6 3 > f =Xv.0 : # o - r ; . O & : : # s 0Xu.$ u G J Y I Y B @.G G J G &.W.",
"M.b.p.d.s.N.f.j.t.N.q.w.j.p.t.w.9.k.r.a.h.p.k.d.p.p.t.t.s.N.P.0XL.$Xk.p.V.r.k.N.j.p.k.8.r.j.D.0X9.; W G V K K Y B K K K I v  .'.",
"%X6X_.XX+X|.|.(.|.@X{.}.|.>X XT.6XrX XQ.9X`.2XOX3X|.{.{.).@XOX).(.(.@X{.}.|.[.|.E.2X4X(.`.>X8XrX6.X E L G I H Y Y M J P H v &.+X",
"b.h o.&.X.X.O.} R ..X.*.b ..3.:Xn.s ` b ! *. .&...&.{ ..X.O.$.$.$.} *.:.! ! ! 1.b ) } *.O.o.4.8X6.+ Q G J I Y I I I ( P I G =./.",
"j.2 S H K L G Z v v P P v j +.|.Z.- C n j L Z G n J v L E N G U P G N ( A J l P L v J P [ Z i U.9.$ Q L J H P K I B J I P Z &.!.",
"w.t P H T P I P ( G P G J l O.OXV.< ] P H P G P J m K P J ^ J K H M J G J ^ N N K M #.I P Z u }.i.$ 9 J G G P K J B J J P J *.'.",
"r.3 J B K J Y I K J K P P J O.<XA.r / J I #.P P @.V J J J ( J K Y Y T G G L K K H Y K J L L ` U.k.; 9 G H K K M B Y Y K Y P *.W.",
"w.2 / P M P P P P ( M H P J } |.t.: L @.P H I J @.B m N @.I J B T K H H N J N I H I I P P ( +.U.k.; / K H K @.B B Y Y B Y J *./.",
"f.t ( M N K B P N B P G P L { +XN.O ( I M K m Y Y Y M U @.K K B B B H Y G J B Y Y M B N m S ` [.r.+ F J B K Y K B B B K @.B *.XX",
"j.3 L Y Y I Y B K N Y I I G A ).B.O v K @.@.U P B V Y U B U Y Y Y @.B K B Y P Y M K B K G Z ..}.k.X u J Y Y M K B B Y B @.^ :.XX",
"r.6 L K N K U Y K ^ U Y H ( X.|.j.t F P K K K N N Y Y U U M H K B Y B P K J Y Y P N H I K S | (.j.: L ( #.I I T @.Y I K T H :.oX",
"r.5 ( Y M K B Y K ^ K I P ( &.|.j.< / J G G G K M K U U K B K I Y K K I K G H H V I K J H Z S _.t.: / P K J @.K Y V T Y Y P *.+X",
"r.< S K K @.B K B J M H K Z O.).V.- C G G L ( P T Y Y Y K Y P I B U @.I P H P T I m m H I P { `.N.2 S J K P K K Y Y @.N M ^  ./.",
"9.5 E K N K B B K J H H K S O..Xp.6 A J G S J G K K Y Y K K K H B K T V J J T H m N G B #.[ &.1Xs.< E ^ N J J P Y B B @.^ J X./.",
"7.5 L P B K U Y Y B K Y H L ..1Xd.7 E N v n G G v m H P J G N M K K T G J P I P m v J K H P *.).s.3 / G Z J G I I H J / G L =./.",
"6.3 G M K Y Y U B B K I G ( ] OXd.# ! E b 9 D | Q S S D A D / L S S Z F A D u C ` b c / D A +.}.5.e ! A u A D S ] L A 9 S ! o.!.",
"7.t L I H H M K Y B Y Y I L ] I.b.w = - - = & > e : & O # - - < < & X $ $ ; X   , , . & 2 r d =Xv.% X , X $ > > * < : & = = f :X",
"j.t Z I Y T Y Y ^ K I I Y J ! F.5Xl.a.V.k.k.t.e.j.t.y.e.j.V.j.k.h.i.k.r.i.h.i.i.h.a.r.V.p.j.J.6X%Xn.i.a.8.k.j.t.t.f.j.j.a.p.D.Y.",
"a.3 L I I K P K Y U M U M I  .G.-XeX(.{.2X).OXQ._.2X`._.2X<XwX:X6X0X}. X>X XU.U.T.;X_.`.G.<X{.(.}.>X>XH.U.F.U.U.}.4X;X<X4X_.8X8X",
"t.6 L I K K K B Y Y T K M J  ._.S.h ` b )  .*.) / }  .;.%.{ 5. XK.d i ..~ o.i 8 ` +. . .A ` ..X.O.O...7 ' i 1 W ` `  .} | o.5.9X",
"r.6 / K K M ^ @.I V K U Y J o.<Xk.: S ( G L L J M K P J G ] O.|.t.= 9 S j F Z C Z J L G L E J v G G S S F j L ) S v J J v F ;.{.",
"i.5 / K K G K K K Y K Y @.J X.|.N.3 ) K N I I H K @.H I J P &.#Xt.y S v P P L G G K H N ( P J K K N L G J J J P m I I Y T P ,./.",
"i.6 / K H M G J K Y Y Y B N | 4Xj.5 F m P @.Y H Y M Y P P G E ).j.y A J J ( P J P J K K G J P H G J J G P P J I K I M U I G ;.'.",
"w.6 L J K B K B K M I Y K K ` 4Xj.: Q J N K V Y U @.M B K ^ 1.{.r., ] I J G G I K K K P P P H M P K G K G G T m M I U U T P ,.^.",
"w.6 L H P K B ^ B K @.K B ( { _.w.& ) N ( P Y M M M Y P K J *.XXN.> L z P Y I U V ^ N B K U U U Y B K K I T K K M Y Y U B J  .~.",
"r.6 L H K ^ N J B B Y K P G | _.r., b L G Y M M U B K P N N X.OXs.2 ( Y M B H I B B B B M U Y U B Y K @.J I Y U U K V U Y K &./.",
"w.6 S T I H K K Y I H I J P { _.p.+ D Z G G I I U Y B I B J &.{.C.< L T B G P Y Y B B J I K U U B B K P H K I Y M K M B K J *./.",
"7.y / P I T m K Y z I I H L ' }.r.& A J G G I Y U Y M J K J O.{.d.3 P I G B Y H @.P N B H Y T U K J K P H Y K H P V K @.I _ *.~.",
"a.5 S H I T H H I I I T J v ~ }.r.+ 8 J G P P I K Y J P K N O.@XN.2 L P N I T I K M J ^ J I I K K K K K G U U H @.K K M m ^ *./.",
"a.7 Q #.P I J G P H H J J J ~ U.k.; 9 L J P ( N Y Y P K G J +.OXe.: L P I P Y T Y K B K G N J K B K J P I Y Y U B K Y Y P K =.+X",
"a.7 L K G P G N J J G I m v | (.Z., C ^ Z P P I @.Y J G B L  .).e.1 L m ^ ^ G I P K I I K / G J K B N K K K H Y B J @.Y J B *.oX",
"a.= E ( S / u W A 8 A D / ! a >Xj.: A L J H I J Y Y Y K m K X.OXd.- Q / ) A F Q Z c S Z c A S ) } / S E L / / ) / / / F / Q +.W.",
"b.p < 2 * , $   o $ $ & < - g ,Xh., F G I J G M B K @.P m J  .|.J.0 = < 7 - r = X # 3 2 * * * 2 < < > 5 2 2 > 5 : , 2 2 < & ` 6X",
"Y.k.N.B.p.i.u.9.u.k.i.j.e.t.K.0X6.= E N K J K Y Y B K K I P | (.*Xx.j.d.p.p.p.j.r.t.N.N.p.p.w.w.w.k.j.d.s.p.p.V.V.p.d.N.t.r.J.6X",
"}.{.2XOX3X{.[..X|.(.|.I.4X_.9X0X6.. 9 P I z Y T K B K I Y v ] {.-X6X>X!.3X).|.@XOX(.OXE.{.{.qX8X6X-X.XXXQ.@X@X@X#X|.@X@X{.|.@X).",
"&.&.$.} X...! { o.R ` W | X.4.qX9.X A J G H Y K M Y ( K J v ] {.K.h O.} }  .*.O.}  . .! O.*.2.>XK.f ! O.} O.&...) *.*.) X.&.} &.",
"I J H K K L k v L G / v Z L | <Xh.; Q m P J H K B B ^ L L G  .).j.2 / P G P G m k m S v Z L | @Xd.: E ( G J G m _ B J G K J G P ",
"Y Y Y T K I H K N J I G P (  .@Xj.: Q v G P K M B N N J P P  .).t.t / I J #.I I H H K P N L O.).B.3 ( K K P I T @.B U Y B K Y H ",
"U Y Y Y H I Y I H P J J P P  .;XA.X D L G N K Y Y B L L K m %.OXs.3 F J H P G m K K J P K L O.|.B.3 L J T T H m Y Y Y M M P Y K ",
"I H I Y Y J Y K J G P G G L } `.N.> L G v P T B Y B _ G G G %.+Xs.2 L N N P J P N m P Z K E ..@Xt.< / @.G I Y I Y Y U M K Y M Y ",
"I Y B B Y K Y Y Y H ^ v V L  .`.d.5 A N K K K Y Y B ^ N J _ &.XXs.2 / m H P N K @.M K v v G X.{.e.2 / P B K @.M Y B U Y Y ^ B Y ",
"K K K U I M H U H K K m m v { +Xd.- c ^ J K M @.B Y B m K G { ).e.2 / K G N K P Y H G L G Z O.).N.5 / B ^ K K Y M B @.B B B B B ",
"J J H Y T B H K K J m K P v { @Xp.r Q K K K Y I Y M I H G L | @Xs.6 S P Y K K K K M P P H L } ).N.5 _ J N K P ^ B U K K K B B Y ",
"Y P T T I H H Y T J K v J L *.Q.p.< ] G P T G H Y I I I I n O.[.t.3 P m H I K B H K M J B m O.).B.6 E J P J B I Y Y Y I K K K @.",
"H H Y H N K I T Y J H P M L &.OXV.: / m G T G I I Y H J K E ! Q.N.2 ] v M J H K Y M Y G J L X.OXB.3 L K I K @.I Y Y Y Y @.U P Y ",
"P I Y H M H H Y N H I K P P &.!.e.5 Q B m K J T m K P I G ( ~ G.N.< ) N K G K Y H I J J J m X.OXs.2 G K K K I G B B I K K K M H ",
"G I P @.K N K K P J K K Y H &.+Xd.6 v N ( K v ^ N K K K H L *.Q.d.3 / P K J Y Y Y T J J J J O.+Xs.3 K Y K B m @.K B P I K K K H ",
"S Z c S Q Q / E E E A S S S +.(.r., R S A Q Q S S L S S S C o.[.t.5 L K G I I I Y H Y I G J { |.d.* S / F ) c / / E / L E / L L ",
"r < > > : r 5 , = # , < 3 # h *Xv.q = 5 5 : : 6 < 2 5 - 2 t d 0Xi.< F K H Y P K I I J P H Z  .(.l.p : < > t 5 : 5 : e r : 2 3 < ",
"h.j.z.h.9.u.w.9.9.8.y.h.f.7.l.7Xm.b.8.a.i.i.9.h.j.8.y.9.j.j.J.eXj.# A m P J K I U G I J H Z { U.M.c.9.t.j.8.h.k.u.a.h.h.h.r.f.y."
};
